<svg width="282" height="241" viewBox="0 0 282 241" fill="none" xmlns="http://www.w3.org/2000/svg">
<path d="M24.1992 51.332L48.399 75.5318L24.1992 99.7316L-0.000584135 75.5318L24.1992 51.332Z" fill="#46AAC8" fill-opacity="0.08"/>
<path d="M257.209 51.332L281.409 75.5318L257.209 99.7316L233.009 75.5318L257.209 51.332Z" fill="#46AAC8" fill-opacity="0.08"/>
<path d="M140.689 72.7246L164.889 96.9244L140.689 121.124L116.49 96.9244L140.689 72.7246Z" fill="#46AAC8" fill-opacity="0.08"/>
<path d="M140.689 121.074L164.889 145.274L140.689 169.474L116.49 145.274L140.689 121.074Z" fill="#46AAC8" fill-opacity="0.08"/>
<path fill-rule="evenodd" clip-rule="evenodd" d="M235.675 121.657L211.475 97.457L187.811 121.122L187.76 121.071L163.561 145.271L187.76 169.471L211.289 145.942L234.818 169.471L259.018 145.271L235.539 121.792L235.675 121.657Z" fill="#46AAC8" fill-opacity="0.08"/>
<path fill-rule="evenodd" clip-rule="evenodd" d="M165.093 193.186L140.893 168.986L117.229 192.651L117.178 192.601L92.9785 216.8L117.178 241L140.707 217.471L164.236 241L188.436 216.8L164.957 193.322L165.093 193.186Z" fill="#46AAC8" fill-opacity="0.08"/>
<path fill-rule="evenodd" clip-rule="evenodd" d="M164.226 48.4859L187.755 72.0148L211.955 47.815L188.476 24.3362L188.612 24.2006L164.412 0.000844303L140.883 23.5293L117.354 0L93.6891 23.665L93.6393 23.6151L69.4395 47.815L93.6393 72.0148L117.168 48.4859L140.697 72.0148L140.697 72.0146L140.697 72.0148L164.226 48.4859Z" fill="#46AAC8" fill-opacity="0.08"/>
<path fill-rule="evenodd" clip-rule="evenodd" d="M94.4972 121.657L70.2974 97.457L46.6328 121.122L46.5826 121.071L22.3828 145.271L46.5826 169.471L70.1116 145.942L93.6407 169.471L117.84 145.271L94.3617 121.792L94.4972 121.657Z" fill="#46AAC8" fill-opacity="0.08"/>
</svg>
