<svg width="25" height="24" viewBox="0 0 25 24" fill="none" xmlns="http://www.w3.org/2000/svg">
<path d="M16.5781 12C16.5781 14.209 14.7871 16 12.5781 16C10.3691 16 8.57812 14.209 8.57812 12C8.57812 9.791 10.3691 8 12.5781 8V8C14.7871 8 16.5781 9.791 16.5781 12V13.5C16.5781 14.881 17.6971 16 19.0781 16C20.4591 16 21.5781 14.881 21.5781 13.5V12C21.5781 7.029 17.5491 3 12.5781 3C7.60712 3 3.57812 7.029 3.57812 12C3.57812 16.971 7.60712 21 12.5781 21C13.7271 21 14.8951 20.782 16.0221 20.315C16.6301 20.063 17.1921 19.747 17.7111 19.386" stroke="black" stroke-width="1.5" stroke-linecap="round" stroke-linejoin="round"/>
</svg>
