<svg width="52" height="9" viewBox="0 0 52 9" fill="none" xmlns="http://www.w3.org/2000/svg">
<path d="M22.3889 8.96945C22.5712 8.96945 23.6794 8.9634 24.5742 8.89996C25.6554 8.82309 26.2127 8.44545 26.621 7.90434C27.1275 7.23465 27.1242 5.97888 27.1236 5.00171C27.1229 3.91042 27.1377 0.74865 27.1331 0.466679C27.1295 0.183701 27.0244 0.0366737 26.7067 0.0393592C26.3887 0.0413734 25.492 0.0393592 25.1842 0.0420444L24.6358 0.0393592C24.3178 0.0366734 24.213 0.183701 24.2084 0.466679V0.769798C24.213 1.10447 24.2041 4.29444 24.2028 5.04233V5.37365C24.1942 6.06246 24.1118 6.73248 23.1555 6.8362C22.7429 6.88051 22.5537 6.90032 22.0426 6.90032C21.5308 6.90032 21.3423 6.88051 20.9241 6.8362C19.9681 6.73382 19.9101 6.06246 19.9012 5.37365V5.04233C19.8998 4.29444 19.8909 1.10447 19.8949 0.769798V0.466679C19.8909 0.183701 19.7855 0.0366737 19.4681 0.0393592L18.9191 0.0420444C18.6113 0.0393592 17.7153 0.0413729 17.3969 0.0393592C17.0796 0.0366734 16.9744 0.183701 16.9708 0.466679C16.9662 0.74865 16.9695 3.91042 16.9682 5.00171C16.9676 5.97888 16.9649 7.23465 17.4707 7.90434C17.8781 8.44545 18.4277 8.82309 19.5054 8.89996C20.4001 8.96408 21.4754 8.96945 21.7137 8.96945H22.3889ZM2.95441 8.55918C2.94815 8.86633 2.85917 8.98751 2.55038 8.99489C2.24061 9.00395 0.725011 8.99892 0.448849 8.99657C0.174004 8.99355 0.00461614 8.90862 0.00395704 8.60819C0.00197975 8.30809 0.00197975 0.762346 2.45283e-06 0.475676C-0.000656646 0.190348 0.131493 0.0550689 0.421825 0.0641323C0.711499 0.0711816 2.20007 0.056076 2.5952 0.063126C2.8941 0.0607765 2.9643 0.236337 2.96529 0.549862C2.97254 0.971475 2.96166 8.25371 2.95441 8.55918ZM44.2512 5.50661C44.2568 6.21489 44.4249 6.68887 45.2217 6.81509C45.8597 6.88222 46.7228 6.89599 47.3852 6.82751C47.9916 6.7597 48.4586 6.50928 48.4859 5.81006C48.5166 5.2196 48.5192 5.11789 48.5212 4.49521C48.5245 2.98398 48.5083 0.788966 48.5133 0.573459L48.5159 0.481819C48.511 0.147146 48.6609 0.00582474 48.939 0.00582474L49.1055 0.000118256C49.4222 0.00280353 50.6965 0.00582474 51.005 0.00582474C51.2831 0.00582474 51.4331 0.147146 51.4285 0.481819L51.4245 0.586215C51.4304 0.901754 51.4209 4.24479 51.4176 5.23135C51.4001 5.72681 51.3655 6.88088 50.9908 7.61266C50.6646 8.24777 50.0806 8.73618 49.0877 8.83655C47.1793 9.03024 45.4392 8.94967 44.0993 8.89261C43.1034 8.84024 42.4618 8.61299 41.9295 8.01044C41.3271 7.31961 41.2955 6.13903 41.3044 4.7849C41.2928 1.79701 41.284 0.935993 41.2886 0.651001V0.481819C41.284 0.147146 41.4339 0.00582474 41.712 0.00582474L41.8775 0.000118256C42.1971 0.00280353 43.5193 0.00582474 43.8284 0.00582474C44.1055 0.00582474 44.2568 0.147146 44.2512 0.481819C44.2466 0.817834 44.2499 4.64425 44.2512 5.48714M29.4067 0.0323099C29.7046 0.0232465 35.0327 0.0296246 36.6986 0.0390234C38.1737 0.0558074 38.7191 0.269635 39.1195 0.815451C39.5815 1.44619 39.6293 2.23638 39.2559 2.88659C38.988 3.35285 38.4923 3.7597 37.7489 4.12928C37.1587 4.43811 36.1252 4.90671 35.1151 5.35955C33.7623 5.96813 32.5374 6.49515 32.3314 6.60492C32.0526 6.75396 32.1581 6.97719 32.3795 6.97383C32.9576 6.96678 38.5388 6.92046 38.8367 6.91979C39.136 6.91947 39.2332 7.02922 39.2332 7.35651C39.2325 7.6989 39.2358 8.28432 39.2365 8.54985C39.2295 8.86908 39.1297 8.95636 38.8328 8.95938C38.4937 8.96307 32.5483 8.96475 32.1255 8.96676C31.1856 8.96441 30.2177 8.9681 29.6403 8.68311C28.9193 8.32628 28.6754 7.61095 28.6747 7.10945C28.709 5.88724 29.3777 5.49583 30.5825 4.92719C31.9221 4.30786 35.8767 2.56535 36.1123 2.4539C36.4043 2.31527 36.3137 2.0427 36.0428 2.05176C35.8349 2.05612 29.7774 2.08768 29.4782 2.08734C29.1799 2.08634 28.9901 2.03732 28.9901 1.7426C28.9907 1.44921 28.9875 0.713404 28.9875 0.410621C28.9875 0.106495 29.1074 0.0420446 29.4067 0.0323099ZM13.7626 4.6284C12.4227 4.06144 8.51292 2.80163 7.99421 2.54014C7.74441 2.43071 7.76122 2.10577 8.09933 2.10577C8.6767 2.1145 14.4076 2.12591 14.7068 2.12792C15.0057 2.1286 15.1316 2.0101 15.1316 1.68214C15.1329 1.34008 15.1305 0.712363 15.1266 0.43677C15.1227 0.156478 15.0235 0.050403 14.7763 0.0497317C14.5292 0.0497317 7.9105 0.057788 7.9105 0.057788C6.06337 0.0534243 5.58948 0.33036 5.06616 0.970501C4.38399 1.80567 4.60083 2.93624 4.99234 3.51932C5.43328 4.17154 6.16125 4.45989 7.31962 4.87278C8.72284 5.33769 12.0276 6.52164 12.0276 6.52164C12.3304 6.6549 12.3073 6.97816 11.9333 6.97816C11.9333 6.97816 5.62936 6.92042 5.33079 6.91975C5.03156 6.91944 4.88557 7.06812 4.88425 7.36251C4.88425 7.65691 4.88161 8.19634 4.88029 8.50248C4.88029 8.80527 4.96663 8.97814 5.26586 8.98888C5.56312 8.99929 10.9835 8.97848 12.6504 8.97512C13.9185 8.97176 15.1434 8.57264 15.3949 7.146C15.5455 5.91674 15.0347 5.15475 13.7626 4.6284Z" fill="black"/>
</svg>
