<svg width="92" height="9" viewBox="0 0 92 9" fill="none" xmlns="http://www.w3.org/2000/svg">
<path d="M0 0.0257143C0.115877 0.459723 0.351879 0.855897 0.683219 1.17262C1.01456 1.48935 1.42901 1.71495 1.88304 1.82571H4.84211L4.97661 1.85143V8.94857H6.80585V1.87714L6.99415 1.8H9.95322C10.406 1.68675 10.819 1.46033 11.15 1.14399C11.4809 0.827649 11.7178 0.4328 11.8363 0L0 0V0.0257143ZM64.1848 0.0257143H62.3556V8.97429H70.7485C71.1462 8.83058 71.5012 8.59615 71.7825 8.2914C72.0638 7.98665 72.2629 7.62081 72.3626 7.22571H64.2117V0L64.1848 0.0257143ZM50.1158 1.77429C51.0842 1.51714 51.8912 0.797143 52.1064 0L41.8573 0.0257143V5.32286H50.2234V7.17429H43.6597C43.1585 7.2989 42.6907 7.5238 42.2873 7.83409C41.8839 8.14439 41.5539 8.53302 41.3193 8.97429H52.0526V3.57429H43.6597V1.77429H50.1158ZM81.3743 8.97429H83.1766V5.37429H89.7942V8.97429H91.5965V3.57429H81.3743V8.97429ZM22.9462 1.8H29.9404C30.4006 1.69592 30.8221 1.47302 31.159 1.1556C31.4958 0.838187 31.7349 0.43845 31.8503 0L21.0632 0C21.1764 0.435241 21.4115 0.832777 21.7432 1.14991C22.075 1.46704 22.4909 1.69178 22.9462 1.8ZM22.9462 5.34857H29.9404C30.4006 5.2445 30.8221 5.02159 31.159 4.70417C31.4958 4.38676 31.7349 3.98702 31.8503 3.54857H21.0632C21.1764 3.98381 21.4115 4.38135 21.7432 4.69848C22.075 5.01561 22.4909 5.24036 22.9462 5.34857ZM22.9462 8.97429H29.9404C30.4006 8.87021 30.8221 8.64731 31.159 8.32989C31.4958 8.01247 31.7349 7.61274 31.8503 7.17429H21.0632C21.1764 7.60953 21.4115 8.00706 21.7432 8.32419C22.075 8.64133 22.4909 8.86607 22.9462 8.97429ZM82.9883 1.8H89.9825C90.4378 1.69178 90.8537 1.46704 91.1854 1.14991C91.5172 0.832777 91.7523 0.435241 91.8655 0L81.1053 0C81.2185 0.435241 81.4536 0.832777 81.7854 1.14991C82.1171 1.46704 82.533 1.69178 82.9883 1.8Z" fill="black"/>
</svg>
