<svg width="130" height="115" viewBox="0 0 130 115" fill="none" xmlns="http://www.w3.org/2000/svg">
<path fill-rule="evenodd" clip-rule="evenodd" d="M59.4002 68.4951C59.7798 68.0652 60.0924 67.5501 60.404 67.0356C62.2057 64.4128 64.3395 61.3964 65.2114 58.2574C66.3283 54.1072 65.5856 50.9803 63.7732 48.6784C61.2197 45.4406 56.2272 43.9476 51.3365 44.4309C46.476 44.891 41.7181 47.1898 39.4136 51.0226C37.8158 53.6254 37.3448 57.0034 38.8113 61.0795C40.4477 65.7097 44.1571 68.4671 48.6813 69.9107C50.4116 70.4947 52.1724 70.7807 54.0313 70.9913C52.8305 72.3286 51.6162 73.6768 50.3818 75.0399C46.2199 79.3462 41.4207 83.3221 36.492 86.7124C30.0365 91.2803 23.0569 94.6073 15.4189 96.6615C14.752 96.9018 14.3392 97.6316 14.5168 98.3167C14.6953 99.0012 15.4133 99.4062 16.1465 99.2517C24.0784 97.1079 31.3598 93.6855 38.0611 88.928C43.061 85.3457 48.0687 81.3453 52.301 76.8477C54.0361 74.9613 55.7344 73.1035 57.344 71.1769C61.4149 71.1889 65.4372 70.5534 68.5719 69.643C89.3044 63.2446 104.946 38.7112 113.565 19.7306C113.876 19.0792 113.606 18.3275 112.939 18.0201C112.271 17.7133 111.505 18.0298 111.193 18.6812C102.844 37.0429 87.8695 60.9258 67.7868 67.0971C65.4248 67.8226 62.4607 68.327 59.4002 68.4951ZM56.0581 68.4686C56.8449 67.5877 57.5598 66.626 58.2055 65.5798C59.8069 63.1114 61.8597 60.4322 62.6905 57.5989C63.5417 54.4758 63.0896 52.0828 61.747 50.3776C59.5981 47.65 55.5396 46.6698 51.611 47.0963C47.5868 47.4594 43.5611 49.1938 41.6998 52.4108C40.4772 54.4501 40.158 57.0264 41.2644 60.1469C42.6508 64.0108 45.7902 66.2477 49.4742 67.3802C51.5812 68.0847 53.8245 68.4099 56.0581 68.4686Z" fill="black"/>
<path fill-rule="evenodd" clip-rule="evenodd" d="M112.93 18.578C112.958 19.2415 112.836 20.021 112.713 20.8012C112.502 22.3343 112.172 23.8221 112.214 24.8859C112.389 31.3282 112.68 39.0516 114.882 45.1644C115.101 45.8171 115.867 46.1859 116.549 45.9336C117.231 45.682 117.622 44.9692 117.336 44.2305C115.27 38.4245 115.066 31.0443 114.836 24.7815C114.833 23.6872 115.221 21.8811 115.454 20.3314C115.617 18.9723 115.626 17.7316 115.25 16.7887C115.073 16.2398 114.305 15.5991 112.94 15.8297C111.038 16.2 106.766 18.5351 106.331 18.7335C101.935 20.7543 97.9864 22.4294 93.1106 20.9829C92.4399 20.815 91.7181 21.2349 91.4504 21.8525C91.2489 22.556 91.6761 23.3231 92.3477 23.4903C97.8848 25.1119 102.492 23.4764 107.478 21.1385C107.749 20.9291 110.29 19.5173 112.27 18.8128C112.507 18.7669 112.695 18.6219 112.93 18.578Z" fill="black"/>
</svg>
