<svg width="123" height="123" viewBox="0 0 123 123" fill="none" xmlns="http://www.w3.org/2000/svg">
<g clip-path="url(#clip0_907_3028)">
<path fill-rule="evenodd" clip-rule="evenodd" d="M68.5452 58.1345C68.2358 58.3599 67.8739 58.5354 67.5125 58.7103C65.6568 59.7434 63.5187 60.9726 61.3782 61.3555C58.5503 61.8379 56.5189 61.1487 55.1026 59.8002C53.1108 57.9007 52.4311 54.4895 53.0584 51.2697C53.6684 48.0685 55.4939 45.0506 58.1852 43.7592C60.0148 42.8602 62.2891 42.7587 64.906 43.9884C67.8805 45.3656 69.4807 48.0032 70.1569 51.1001C70.4366 52.2865 70.5165 53.4745 70.5401 54.723C71.5039 54.0087 72.4759 53.2861 73.459 52.5512C76.5812 50.055 79.5236 47.1146 82.0851 44.0516C85.5247 40.0476 88.1725 35.6176 90.0156 30.6705C90.2171 30.2423 90.7279 30.0137 91.1721 30.1746C91.6158 30.3361 91.8399 30.8386 91.6914 31.3162C89.7703 36.453 87.0402 41.0775 83.4592 45.2329C80.7657 48.3313 77.7939 51.4087 74.5402 53.9397C73.178 54.9747 71.8371 55.987 70.4561 56.936C70.2092 59.642 69.5352 62.2752 68.7339 64.3013C63.1843 77.6783 45.902 86.5369 32.7493 91.0765C32.2969 91.2428 31.8143 91.0163 31.6517 90.5535C31.4897 90.0902 31.748 89.6012 32.2004 89.4349C44.9249 85.0356 61.7332 76.5796 67.0912 63.6202C67.7212 62.096 68.242 60.1578 68.5452 58.1345ZM68.7368 55.912C68.1021 56.3797 67.4183 56.7946 66.6827 57.1582C64.9421 58.0679 63.0332 59.2643 61.0984 59.639C58.9697 60.0092 57.4077 59.559 56.3586 58.5601C54.6806 56.9613 54.2832 54.203 54.8126 51.619C55.3057 48.9675 56.7103 46.4008 58.9646 45.3653C60.3963 44.6805 62.1283 44.6296 64.1327 45.5602C66.6136 46.7233 67.9036 48.9496 68.4256 51.4686C68.7619 52.9129 68.8376 54.424 68.7368 55.912Z" fill="black"/>
<path fill-rule="evenodd" clip-rule="evenodd" d="M32.0221 90.5826C32.4612 90.6428 32.9869 90.6103 33.5131 90.5773C34.5451 90.5329 35.5545 90.407 36.2587 90.5016C40.5288 91.0214 45.6431 91.6979 49.5675 93.5436C49.9875 93.7304 50.1847 94.2622 49.9743 94.6999C49.7644 95.1371 49.2662 95.3527 48.7933 95.1164C45.0643 93.3798 40.1727 92.7823 36.0252 92.2372C35.2982 92.167 34.0737 92.3121 33.0293 92.3696C32.1159 92.393 31.2909 92.3214 30.6878 92.0122C30.3341 91.8605 29.9564 91.3098 30.1952 90.4171C30.5602 89.1767 32.3794 86.4838 32.5384 86.2073C34.1566 83.4119 35.5168 80.8931 34.8607 77.5624C34.7912 77.1062 35.1154 76.6528 35.5426 76.5136C36.0227 76.4237 36.5057 76.7556 36.5747 77.2124C37.3058 80.9935 35.9305 83.953 34.0649 87.1197C33.9087 87.287 32.8115 88.8873 32.2195 90.1586C32.1741 90.3134 32.066 90.4294 32.0221 90.5826Z" fill="black"/>
</g>
<defs>
<clipPath id="clip0_907_3028">
<rect width="86.7718" height="86.7718" fill="white" transform="matrix(0.731077 0.682295 0.682295 -0.731077 0 63.4365)"/>
</clipPath>
</defs>
</svg>
