<svg width="136" height="104" viewBox="0 0 136 104" fill="none" xmlns="http://www.w3.org/2000/svg">
<path fill-rule="evenodd" clip-rule="evenodd" d="M56.0472 50.3874C56.5892 50.5751 57.1844 50.6682 57.7788 50.7607C60.8898 51.4292 64.4911 52.2553 67.7258 51.8675C71.9889 51.3218 74.5981 49.4456 76.0376 46.8937C78.0607 43.3006 77.5424 38.1154 75.2351 33.7763C72.9607 29.4561 69.0249 25.9303 64.6036 25.2571C61.5887 24.7694 58.2855 25.6187 55.0736 28.5255C51.4139 31.8001 50.2748 36.2795 50.6606 41.0128C50.7787 42.8351 51.184 44.5724 51.6963 46.3717C50.0028 45.7698 48.294 45.1596 46.5638 44.5366C40.9981 42.3256 35.4956 39.3995 30.4853 36.131C23.8052 31.8983 18.0734 26.7089 13.2683 20.4265C12.7923 19.9011 11.9604 19.7969 11.3943 20.2218C10.8291 20.6473 10.7277 21.4653 11.1495 22.0847C16.1493 28.6048 22.0842 34.037 29.0331 38.4249C34.248 41.6863 39.8526 44.7958 45.622 46.9991C48.0266 47.8863 50.3907 48.7503 52.7848 49.506C54.3222 53.2754 56.44 56.7536 58.4743 59.3064C72.2781 76.0465 100.917 81.18 121.749 81.9312C122.47 81.9715 123.063 81.4358 123.093 80.7016C123.123 79.9669 122.539 79.3791 121.818 79.3388C101.66 78.6014 73.8768 73.8374 60.5302 57.6118C58.9608 55.7034 57.3668 53.154 56.0472 50.3874ZM54.8004 47.2866C55.9144 47.6791 57.0757 47.9745 58.2888 48.1737C61.1809 48.7158 64.4395 49.595 67.3758 49.2856C70.588 48.8849 72.6291 47.5565 73.6954 45.6663C75.4005 42.6413 74.7633 38.5151 72.8744 35.044C71.0079 31.4605 67.8726 28.3971 64.1893 27.8994C61.8383 27.5444 59.3343 28.2292 56.8692 30.4394C53.8232 33.1914 52.9486 36.9457 53.3026 40.7836C53.4525 43.0001 54.005 45.1985 54.8004 47.2866Z" fill="black"/>
<path fill-rule="evenodd" clip-rule="evenodd" d="M122.573 80.9056C121.97 81.1839 121.203 81.3673 120.435 81.5502C118.936 81.9381 117.435 82.1992 116.467 82.6428C110.576 85.2555 103.544 88.4622 98.7279 92.8235C98.2079 93.275 98.158 94.1232 98.6509 94.6584C99.1428 95.193 99.951 95.284 100.525 94.7385C105.109 90.619 111.857 87.623 117.561 85.0277C118.572 84.609 120.39 84.2812 121.912 83.9068C123.231 83.5407 124.382 83.0773 125.111 82.3704C125.551 81.9982 125.851 81.044 125.119 79.8693C124.053 78.2516 120.268 75.1888 119.92 74.8621C116.378 71.5645 113.327 68.5503 112.81 63.4908C112.71 62.8066 112.048 62.2989 111.374 62.2862C110.647 62.3674 110.1 63.0543 110.201 63.739C110.808 69.4767 114.073 73.1158 118.131 76.8372C118.428 77.0087 120.701 78.8217 122.105 80.3844C122.238 80.5863 122.444 80.7053 122.573 80.9056Z" fill="black"/>
</svg>
