<svg width="1246" height="797" viewBox="0 0 1246 797" fill="none" xmlns="http://www.w3.org/2000/svg">
<path fill-rule="evenodd" clip-rule="evenodd" d="M1245 623C1245 966.521 966.521 1245 623 1245C279.479 1245 1 966.521 1 623C1 279.479 279.479 1 623 1C966.521 1 1245 279.479 1245 623ZM1246 623C1246 967.073 967.073 1246 623 1246C278.927 1246 0 967.073 0 623C0 278.927 278.927 0 623 0C967.073 0 1246 278.927 1246 623ZM1106 623C1106 889.754 889.754 1106 623 1106C356.246 1106 140 889.754 140 623C140 356.246 356.246 140 623 140C889.754 140 1106 356.246 1106 623ZM1107 623C1107 890.306 890.306 1107 623 1107C355.694 1107 139 890.306 139 623C139 355.694 355.694 139 623 139C890.306 139 1107 355.694 1107 623Z" fill="url(#paint0_linear_1116_4448)"/>
<defs>
<linearGradient id="paint0_linear_1116_4448" x1="623" y1="495.5" x2="623" y2="26.5789" gradientUnits="userSpaceOnUse">
<stop stop-color="#CBD5DD" stop-opacity="0"/>
<stop offset="0.349591" stop-color="#CBD5DD"/>
<stop offset="1" stop-color="#CBD5DD" stop-opacity="0"/>
</linearGradient>
</defs>
</svg>
