<svg width="666" height="799" viewBox="0 0 666 799" fill="none" xmlns="http://www.w3.org/2000/svg">
<path fillRule="evenodd" clipRule="evenodd" d="M451.97 0L665.755 797.855L664.789 798.114L451.004 0.258819L451.97 0ZM439.969 0L653.754 797.855L652.788 798.114L439.003 0.258819L439.969 0ZM641.754 797.855L427.969 0L427.003 0.258819L640.788 798.114L641.754 797.855ZM415.969 0L629.754 797.855L628.788 798.114L415.003 0.258819L415.969 0ZM617.754 797.855L403.969 0L403.003 0.258819L616.788 798.114L617.754 797.855ZM391.969 0L605.754 797.855L604.788 798.114L391.003 0.258819L391.969 0ZM593.754 797.855L379.969 0L379.003 0.258819L592.788 798.114L593.754 797.855ZM367.969 0L581.754 797.855L580.788 798.114L367.003 0.258819L367.969 0ZM569.755 797.855L355.97 0L355.004 0.258819L568.789 798.114L569.755 797.855ZM343.97 0L557.755 797.855L556.789 798.114L343.004 0.258819L343.97 0ZM545.755 797.855L331.97 0L331.004 0.258819L544.789 798.114L545.755 797.855ZM319.97 0L533.755 797.855L532.789 798.114L319.004 0.258819L319.97 0ZM521.755 797.855L307.97 0L307.004 0.258819L520.789 798.114L521.755 797.855ZM295.97 0L509.755 797.855L508.789 798.114L295.004 0.258819L295.97 0ZM497.755 797.855L283.97 0L283.004 0.258819L496.789 798.114L497.755 797.855ZM271.97 0L485.755 797.855L484.789 798.114L271.004 0.258819L271.97 0ZM473.755 797.855L259.97 0L259.004 0.258819L472.789 798.114L473.755 797.855ZM247.97 0L461.755 797.855L460.789 798.114L247.004 0.258819L247.97 0ZM449.755 797.855L235.97 0L235.004 0.258819L448.789 798.114L449.755 797.855ZM223.97 0L437.755 797.855L436.789 798.114L223.004 0.258819L223.97 0ZM425.755 797.855L211.97 0L211.004 0.258819L424.789 798.114L425.755 797.855ZM199.97 0L413.755 797.855L412.789 798.114L199.004 0.258819L199.97 0ZM401.755 797.855L187.97 0L187.004 0.258819L400.789 798.114L401.755 797.855ZM175.97 0L389.755 797.855L388.789 798.114L175.004 0.258819L175.97 0ZM377.755 797.855L163.97 0L163.004 0.258819L376.789 798.114L377.755 797.855ZM151.97 0L365.755 797.855L364.789 798.114L151.004 0.258819L151.97 0ZM353.755 797.855L139.97 0L139.004 0.258819L352.789 798.114L353.755 797.855ZM127.97 0L341.755 797.855L340.789 798.114L127.004 0.258819L127.97 0ZM329.755 797.855L115.97 0L115.004 0.258819L328.789 798.114L329.755 797.855ZM103.97 0L317.755 797.855L316.789 798.114L103.004 0.258819L103.97 0ZM305.755 797.855L91.9703 0L91.0044 0.258819L304.789 798.114L305.755 797.855ZM79.9703 0L293.755 797.855L292.789 798.114L79.0044 0.258819L79.9703 0ZM281.755 797.855L67.9703 0L67.0044 0.258819L280.789 798.114L281.755 797.855ZM55.9703 0L269.755 797.855L268.789 798.114L55.0044 0.258819L55.9703 0ZM257.755 797.855L43.9703 0L43.0044 0.258819L256.789 798.114L257.755 797.855ZM31.9703 0L245.755 797.855L244.789 798.114L31.0044 0.258819L31.9703 0ZM233.755 797.855L19.9703 0L19.0044 0.258819L232.789 798.114L233.755 797.855ZM7.97034 0L221.755 797.855L220.789 798.114L7.00439 0.258819L7.97034 0ZM209.755 797.855L-4.02966 0L-4.99561 0.258819L208.789 798.114L209.755 797.855ZM-16.0297 0L197.755 797.855L196.789 798.114L-16.9956 0.258819L-16.0297 0ZM185.755 797.855L-28.0297 0L-28.9956 0.258819L184.789 798.114L185.755 797.855ZM-40.0297 0L173.755 797.855L172.789 798.114L-40.9956 0.258819L-40.0297 0ZM161.755 797.855L-52.0297 0L-52.9956 0.258819L160.789 798.114L161.755 797.855ZM-64.0297 0L149.755 797.855L148.789 798.114L-64.9956 0.258819L-64.0297 0ZM137.75 797.855L-76.0345 0L-77.0005 0.258819L136.784 798.114L137.75 797.855ZM-88.0345 0L125.75 797.855L124.784 798.114L-89.0005 0.258819L-88.0345 0ZM113.75 797.855L-100.035 0L-101 0.258819L112.784 798.114L113.75 797.855ZM-112.035 0L101.75 797.855L100.784 798.114L-113 0.258819L-112.035 0ZM89.75 797.855L-124.035 0L-125 0.258819L88.7841 798.114L89.75 797.855ZM-136.035 0L77.75 797.855L76.7841 798.114L-137 0.258819L-136.035 0ZM65.75 797.855L-148.035 0L-149 0.258819L64.7841 798.114L65.75 797.855ZM-160.035 0L53.75 797.855L52.7841 798.114L-161 0.258819L-160.035 0ZM41.75 797.855L-172.035 0L-173 0.258819L40.7841 798.114L41.75 797.855ZM-184.035 0L29.75 797.855L28.7841 798.114L-185 0.258819L-184.035 0Z" fill="url(#paint0_diamond_719_510)" fill-opacity="0.25"/>
<defs>
<radialGradient id="paint0_diamond_719_510" cx="0" cy="0" r="1" gradientUnits="userSpaceOnUse" gradientTransform="translate(-447.528 479.092) rotate(-10.8032) scale(1121.26 416.934)">
<stop stop-color="#2100EC"/>
<stop offset="1" stopColor="#2100EC" stop-opacity="0"/>
</radialGradient>
</defs>
</svg>
