<svg width="154" height="140" viewBox="0 0 154 140" fill="none" xmlns="http://www.w3.org/2000/svg">
<g clip-path="url(#clip0_1116_4050)">
<path d="M43.3464 103.508C42.9939 103.001 42.7002 102.572 42.4848 102.3C42.3674 102.163 42.289 102.046 42.2303 101.968C42.1716 101.891 42.152 101.852 42.152 101.852C42.152 101.852 42.0541 102.027 41.8974 102.339C41.7604 102.65 41.5646 103.079 41.3492 103.624C40.938 104.715 40.5072 106.235 40.3897 107.93C40.3114 108.787 40.3897 109.625 40.566 110.482C40.7422 111.339 41.0359 112.197 41.4667 112.995C41.5841 113.19 41.7016 113.385 41.8191 113.599C41.9562 113.794 42.1128 113.97 42.2499 114.145C42.5632 114.496 42.9156 114.827 43.3072 115.139C44.0904 115.762 45.0303 116.268 46.1464 116.639C47.5562 115.431 47.8695 113.892 47.6345 112.275C47.517 111.476 47.2625 110.658 46.91 109.859C46.8317 109.664 46.7338 109.469 46.6359 109.255C46.5576 109.06 46.4597 108.846 46.3813 108.651C46.1855 108.242 45.9897 107.852 45.7939 107.462C45.3827 106.683 44.9128 105.962 44.482 105.3C44.0904 104.618 43.6988 103.995 43.3464 103.488V103.508Z" fill="black"/>
<path d="M37.1074 100.214L36.9703 99.6103C36.7745 98.8115 36.5395 98.0517 36.285 97.3699C36.1675 97.0387 36.0304 96.7075 35.913 96.3957C35.8151 96.084 35.7172 95.7918 35.6193 95.519C35.2276 94.4475 34.9144 93.7656 34.9144 93.7656C34.9144 93.7656 34.3857 94.3501 33.72 95.3437C33.3871 95.8307 33.0151 96.4347 32.6626 97.0971C32.3102 97.7595 31.9577 98.5193 31.7423 99.2986C31.5269 100.078 31.3703 100.896 31.3116 101.753C31.292 102.182 31.292 102.591 31.3116 103.02C31.3116 103.234 31.3507 103.448 31.3899 103.663C31.429 103.857 31.4878 104.072 31.5661 104.267C31.8402 105.065 32.2514 105.845 32.8388 106.566C33.1325 106.916 33.4654 107.267 33.8766 107.559C34.2878 107.851 34.7577 108.124 35.2668 108.358C36.892 107.384 37.4794 105.962 37.5773 104.442C37.6556 103.663 37.6165 102.844 37.4794 102.026C37.4207 101.617 37.3228 101.227 37.2248 100.818C37.1661 100.623 37.1269 100.429 37.0682 100.234L37.1074 100.214Z" fill="black"/>
<path d="M25.3549 98.2682C25.6682 98.5994 26.0402 98.9306 26.4514 99.2229C28.2136 98.541 29.1535 97.2746 29.6234 95.833C29.7409 95.4823 29.8388 95.0926 29.9367 94.7225C30.015 94.3328 30.0933 93.9432 30.1325 93.5535C30.2304 92.7547 30.2108 91.9755 30.1912 91.2156C30.1912 90.4363 30.1912 89.6765 30.1129 88.9752C30.0542 88.2738 29.9367 87.6699 29.9171 87.1049C29.8192 86.0139 29.6626 85.3125 29.6626 85.3125C29.6626 85.3125 29.0164 85.7996 28.1549 86.6568C27.7045 87.0854 27.215 87.5919 26.7255 88.1764C26.471 88.4686 26.2164 88.7804 26.001 89.1116C25.7661 89.4428 25.5507 89.7739 25.3549 90.1246C24.9437 90.826 24.5912 91.6053 24.3367 92.3846C24.1996 92.7742 24.1017 93.1834 24.0234 93.5925C23.9842 94.0016 23.9647 94.3913 23.9842 94.8004C24.0234 95.5992 24.2192 96.4174 24.6108 97.1772C24.787 97.5669 25.0612 97.9176 25.3745 98.2488L25.3549 98.2682Z" fill="black"/>
<path d="M18.818 88.1577C19.0334 88.5279 19.3075 88.8786 19.6208 89.2292C21.481 88.8396 22.6754 87.7681 23.4782 86.4822C23.5761 86.3264 23.674 86.151 23.7719 85.9952C23.8698 85.8198 23.9677 85.6445 24.046 85.4691C24.2222 85.1185 24.3789 84.7483 24.5159 84.3781C24.7901 83.6378 24.9859 82.878 25.1229 82.1182C25.2991 81.3584 25.4558 80.618 25.5341 79.9362C25.5929 79.5855 25.6124 79.2738 25.6516 78.962C25.6712 78.6503 25.6908 78.3581 25.7299 78.0853C25.867 76.9943 25.8866 76.293 25.8866 76.293C25.8866 76.293 25.1621 76.6826 24.1439 77.4035C23.6348 77.7541 23.0474 78.1828 22.4404 78.6893C21.8334 79.1958 21.2656 79.7608 20.6977 80.3843C20.1495 81.0077 19.6208 81.6896 19.1901 82.4299C18.9747 82.8001 18.7789 83.1702 18.6222 83.5404C18.4852 83.9106 18.3677 84.3002 18.2894 84.6899C18.1327 85.4691 18.1327 86.2484 18.2894 87.0277C18.3677 87.4174 18.5439 87.7875 18.7593 88.1577H18.818Z" fill="black"/>
<path d="M20.3251 75.7686C20.8342 75.2036 21.3237 74.5412 21.7349 73.8398C22.1461 73.1579 22.4789 72.4176 22.7726 71.7162C23.3796 70.2745 23.8496 68.8718 24.1041 67.8198C24.4174 66.7677 24.5545 66.0469 24.5545 66.0469C24.5545 66.0469 23.7908 66.3586 22.6943 66.9431C22.1461 67.2353 21.4999 67.6055 20.8538 68.0146C20.2076 68.4432 19.5419 68.9303 18.8957 69.4758C17.6034 70.5668 16.3503 71.8916 15.7824 73.3333C15.4691 74.0541 15.3125 74.8139 15.3125 75.5932C15.3321 76.353 15.6062 77.1323 16.0566 77.8726C17.8971 77.7558 19.2873 76.8985 20.3251 75.7491V75.7686Z" fill="black"/>
<path d="M17.8919 65.9884C18.1856 65.7351 18.4793 65.4624 18.7534 65.1701C19.0276 64.8779 19.3017 64.5662 19.5562 64.2545C20.0653 63.6115 20.5157 62.9297 20.9073 62.2673C21.1031 61.9361 21.2793 61.6049 21.4555 61.2542C21.6318 60.9035 21.808 60.5723 21.9646 60.2411C22.2779 59.5787 22.5325 58.9747 22.7283 58.4487C23.1199 57.3967 23.3548 56.6953 23.3548 56.6953C23.3548 56.6953 22.5716 56.9486 21.4555 57.4746C20.3395 57.9811 18.8709 58.741 17.4611 59.7151C16.7562 60.2021 16.0709 60.7476 15.4444 61.3321C14.8374 61.9166 14.3087 62.54 13.8975 63.2024C13.4863 63.8648 13.1926 64.5857 13.0751 65.326C12.9968 66.0663 13.0751 66.8261 13.3884 67.6054C15.1702 67.6833 16.6583 67.0209 17.8527 66.0079L17.8919 65.9884Z" fill="black"/>
<path d="M12.6309 56.5968C14.3344 56.8111 15.8421 56.2656 17.1148 55.35C17.761 54.9019 18.3484 54.3564 18.8771 53.7524C19.4449 53.1679 19.9344 52.5445 20.3848 51.9211C20.8351 51.2976 21.2071 50.6547 21.5988 50.0702C21.9708 49.4858 22.2841 48.9598 22.5386 48.4922C22.7932 48.0246 22.989 47.635 23.126 47.3622C23.2631 47.0895 23.3414 46.9336 23.3414 46.9336C23.3414 46.9336 23.1456 46.9726 22.8127 47.07C22.4603 47.1479 22.0099 47.3038 21.4421 47.4986C20.326 47.8882 18.8183 48.4727 17.3498 49.291C16.9778 49.4858 16.6253 49.7196 16.2533 49.9339C15.9009 50.1677 15.568 50.4209 15.2547 50.6742C14.6085 51.2002 14.0407 51.7652 13.5708 52.3886C12.6113 53.616 12.2197 55.0577 12.6113 56.5968H12.6309Z" fill="black"/>
<path d="M18.3657 43.7362C19.658 42.9764 20.9307 41.9244 21.9489 40.8723C22.2034 40.5996 22.4384 40.3463 22.6734 40.0736C22.9279 39.8203 23.1629 39.567 23.3783 39.3332C23.809 38.8462 24.2006 38.3786 24.4944 37.989C24.7881 37.5993 25.0622 37.2681 25.2384 37.0538C25.4146 36.82 25.5125 36.7031 25.5125 36.7031C25.5125 36.7031 24.7489 36.7616 23.5937 36.9759C22.4384 37.1902 20.9503 37.5603 19.423 38.1643C18.6594 38.4565 17.8957 38.8267 17.1909 39.2358C16.5055 39.6644 15.879 40.1515 15.3503 40.697C15.0762 40.9698 14.8412 41.262 14.6258 41.5542C14.4104 41.8465 14.2342 42.1582 14.1167 42.4894C13.8818 43.1518 13.7839 43.8531 13.9013 44.5935C15.5265 44.9052 17.0342 44.4961 18.3461 43.7362H18.3657Z" fill="black"/>
<path d="M28.9065 27.957C28.3387 27.957 27.6533 28.0155 26.9289 28.0739C26.1848 28.1519 25.4408 28.2687 24.6575 28.4441C23.8743 28.6194 23.0715 28.8337 22.3079 29.126C21.9163 29.2623 21.5443 29.4182 21.1722 29.613C20.8198 29.7884 20.4869 30.0027 20.1932 30.217C18.9596 31.0937 17.9806 32.2237 17.9219 33.6654C19.3904 34.1914 20.8981 33.9966 22.2883 33.5095C23.7568 33.0224 25.1275 32.2237 26.3415 31.3859C27.6338 30.5871 28.6715 29.7104 29.4743 29.0675C30.2967 28.4246 30.7862 27.996 30.7862 27.996C30.7862 27.996 30.0422 27.957 28.9065 27.996V27.957Z" fill="black"/>
<path d="M36.2095 19.5412C35.0934 19.4438 33.5661 19.3853 32.0193 19.5217C30.4528 19.6581 28.7689 19.9698 27.3396 20.6127C25.9885 21.2751 24.8137 22.2102 24.3438 23.535C24.9703 23.8857 25.6361 24.0806 26.341 24.1585C27.0654 24.2364 27.8095 24.178 28.5535 24.0611C29.2976 23.9247 30.0417 23.7299 30.7857 23.4571C31.5102 23.2038 32.2151 22.8921 32.9396 22.5804C34.3689 21.957 35.5633 21.2361 36.5032 20.6906C37.443 20.1646 38.0305 19.775 38.0305 19.775C38.0305 19.775 37.3256 19.6581 36.2095 19.5607V19.5412Z" fill="black"/>
<path d="M35.1285 11.7678C33.7971 12.3912 32.6418 13.3069 32.1719 14.5927C34.5019 15.9955 37.8306 14.9434 40.4936 13.6381C41.8642 12.9757 43.1173 12.2549 43.9984 11.6899C44.8991 11.1249 45.4474 10.7158 45.4474 10.7158C45.4474 10.7158 42.7257 10.3456 39.6516 10.6768C38.1243 10.8327 36.46 11.1639 35.1285 11.7873V11.7678Z" fill="black"/>
<path d="M107.829 116.639C108.945 116.268 109.884 115.742 110.668 115.119C111.059 114.807 111.412 114.476 111.725 114.125C111.882 113.95 112.038 113.775 112.156 113.58C112.293 113.385 112.391 113.19 112.508 112.976C112.939 112.177 113.233 111.32 113.409 110.463C113.566 109.605 113.683 108.768 113.585 107.91C113.468 106.216 113.037 104.696 112.626 103.605C112.41 103.059 112.215 102.611 112.077 102.3C111.921 101.988 111.823 101.812 111.823 101.812C111.823 101.812 111.803 101.851 111.745 101.929C111.686 102.007 111.608 102.124 111.49 102.261C111.275 102.553 110.961 102.962 110.629 103.469C110.276 103.975 109.884 104.598 109.493 105.28C109.043 105.943 108.592 106.664 108.181 107.443C107.966 107.833 107.77 108.222 107.594 108.631C107.496 108.826 107.417 109.04 107.319 109.235C107.222 109.43 107.124 109.625 107.045 109.839C106.693 110.638 106.438 111.456 106.321 112.255C106.086 113.853 106.399 115.411 107.809 116.619L107.829 116.639Z" fill="black"/>
<path d="M120.28 95.3671C119.614 94.393 119.086 93.7891 119.086 93.7891C119.086 93.7891 118.753 94.4515 118.381 95.5425C118.283 95.8152 118.185 96.1075 118.087 96.4192C117.97 96.7309 117.833 97.0426 117.715 97.3933C117.461 98.0752 117.226 98.835 117.03 99.6338L116.893 100.238C116.834 100.433 116.775 100.627 116.736 100.822C116.638 101.212 116.56 101.621 116.482 102.03C116.345 102.829 116.305 103.647 116.384 104.446C116.501 105.985 117.089 107.388 118.694 108.362C119.203 108.128 119.654 107.855 120.084 107.563C120.496 107.271 120.809 106.92 121.122 106.569C121.71 105.868 122.14 105.089 122.395 104.271C122.454 104.076 122.512 103.861 122.571 103.667C122.61 103.452 122.63 103.238 122.649 103.024C122.689 102.595 122.689 102.166 122.669 101.757C122.63 100.92 122.473 100.082 122.238 99.3026C122.023 98.5428 121.67 97.7635 121.318 97.1011C120.965 96.4387 120.593 95.8347 120.261 95.3476L120.28 95.3671Z" fill="black"/>
<path d="M128.661 90.1246C128.446 89.7739 128.23 89.4233 128.015 89.1116C127.799 88.7804 127.525 88.4686 127.29 88.1764C126.801 87.5919 126.292 87.0659 125.861 86.6568C124.98 85.819 124.334 85.3125 124.334 85.3125C124.334 85.3125 124.197 86.0139 124.079 87.1049C124.06 87.6699 123.942 88.2738 123.883 88.9752C123.825 89.6765 123.785 90.4169 123.805 91.2156C123.785 91.9755 123.766 92.7742 123.864 93.5535C123.903 93.9432 123.981 94.3328 124.06 94.7225C124.158 95.1121 124.255 95.4823 124.373 95.833C124.843 97.2552 125.783 98.5215 127.545 99.2229C127.976 98.9306 128.328 98.5994 128.661 98.2682C128.974 97.937 129.248 97.5669 129.425 97.1967C129.797 96.4369 129.992 95.6381 130.051 94.8199C130.071 94.4107 130.051 94.0211 130.012 93.612C129.934 93.2028 129.836 92.7937 129.699 92.4041C129.444 91.6053 129.092 90.8455 128.681 90.1441L128.661 90.1246Z" fill="black"/>
<path d="M130.526 86.4823C131.328 87.7681 132.523 88.8396 134.383 89.2293C134.716 88.8786 134.97 88.5279 135.186 88.1578C135.401 87.7876 135.577 87.4174 135.656 87.0278C135.832 86.2485 135.812 85.4497 135.656 84.6899C135.577 84.3003 135.48 83.9106 135.342 83.5404C135.186 83.1703 134.99 82.7806 134.775 82.43C134.344 81.7091 133.835 81.0272 133.267 80.4038C132.699 79.7804 132.151 79.2154 131.524 78.7088C130.917 78.2023 130.33 77.7737 129.821 77.423C128.803 76.7216 128.078 76.3125 128.078 76.3125C128.078 76.3125 128.078 77.0139 128.215 78.1049C128.254 78.3776 128.274 78.6699 128.313 78.9816C128.352 79.2933 128.372 79.6245 128.431 79.9557C128.528 80.6376 128.666 81.3779 128.842 82.1377C128.979 82.878 129.175 83.6379 129.449 84.3977C129.586 84.7678 129.742 85.138 129.919 85.4887C130.017 85.664 130.095 85.8394 130.193 86.0147C130.291 86.19 130.369 86.3459 130.467 86.5212L130.526 86.4823Z" fill="black"/>
<path d="M138.711 75.6088C138.711 74.849 138.534 74.0892 138.241 73.3684C137.673 71.9267 136.42 70.5824 135.127 69.5109C134.481 68.9654 133.796 68.4783 133.169 68.0497C132.523 67.6211 131.877 67.2704 131.329 66.9587C130.232 66.3742 129.469 66.0625 129.469 66.0625C129.469 66.0625 129.606 66.7639 129.919 67.8354C130.174 68.8874 130.624 70.2902 131.251 71.7319C131.525 72.4527 131.877 73.1735 132.288 73.8554C132.7 74.5373 133.189 75.1997 133.698 75.7842C134.736 76.9336 136.126 77.7909 137.967 77.9078C138.417 77.1479 138.691 76.3881 138.711 75.6283V75.6088Z" fill="black"/>
<path d="M140.905 65.3025C140.807 64.5622 140.494 63.8609 140.082 63.179C139.671 62.5166 139.142 61.8737 138.535 61.3087C137.928 60.7242 137.224 60.1787 136.519 59.6916C135.109 58.7175 133.64 57.9577 132.524 57.4512C131.408 56.9446 130.625 56.6719 130.625 56.6719C130.625 56.6719 130.86 57.3538 131.252 58.4253C131.447 58.9513 131.722 59.5747 132.015 60.2177C132.172 60.5489 132.328 60.8801 132.524 61.2307C132.701 61.5619 132.877 61.8931 133.073 62.2438C133.464 62.9257 133.915 63.6076 134.424 64.231C134.678 64.5427 134.952 64.8544 135.226 65.1467C135.501 65.4389 135.775 65.7117 136.088 65.9649C137.302 66.978 138.77 67.6404 140.552 67.5625C140.866 66.7832 140.944 66.0234 140.866 65.2831L140.905 65.3025Z" fill="black"/>
<path d="M140.407 52.3886C139.937 51.7652 139.35 51.2002 138.723 50.6742C138.41 50.4209 138.077 50.1677 137.725 49.9339C137.372 49.7001 137 49.4858 136.648 49.291C135.179 48.4727 133.691 47.8882 132.556 47.4986C131.988 47.3038 131.537 47.1674 131.185 47.07C130.832 46.992 130.656 46.9336 130.656 46.9336C130.656 46.9336 130.735 47.0895 130.872 47.3622C131.009 47.635 131.185 48.0246 131.439 48.4922C131.694 48.9598 132.007 49.5053 132.379 50.0702C132.771 50.6352 133.123 51.2976 133.593 51.9211C134.044 52.5445 134.553 53.1874 135.121 53.7524C135.669 54.3369 136.237 54.8824 136.883 55.35C138.156 56.2656 139.663 56.8111 141.367 56.5968C141.758 55.0577 141.367 53.616 140.407 52.3886Z" fill="black"/>
<path d="M139.375 41.5542C139.16 41.262 138.925 40.9698 138.651 40.697C138.122 40.1515 137.476 39.6644 136.81 39.2358C136.105 38.8072 135.341 38.4565 134.578 38.1643C133.051 37.5603 131.562 37.1707 130.407 36.9759C129.252 36.7616 128.469 36.7031 128.469 36.7031C128.469 36.7031 128.567 36.8395 128.743 37.0538C128.919 37.2876 129.193 37.5993 129.487 37.989C129.8 38.3786 130.172 38.8462 130.603 39.3332C130.818 39.567 131.053 39.8398 131.308 40.0736C131.543 40.3463 131.778 40.5996 132.032 40.8723C133.051 41.9439 134.323 42.9959 135.616 43.7557C136.947 44.4961 138.455 44.9247 140.08 44.6129C140.197 43.8726 140.1 43.1713 139.865 42.5089C139.747 42.1777 139.571 41.8659 139.355 41.5737L139.375 41.5542Z" fill="black"/>
<path d="M133.831 30.1991C133.518 29.9848 133.205 29.7705 132.833 29.5952C132.461 29.4198 132.089 29.264 131.697 29.1081C130.933 28.8159 130.131 28.6016 129.347 28.4263C128.564 28.2509 127.82 28.134 127.076 28.0561C126.332 27.9782 125.666 27.9392 125.098 27.9392C123.963 27.9002 123.219 27.9392 123.219 27.9392C123.219 27.9392 123.708 28.3873 124.531 29.0107C125.333 29.6536 126.371 30.5109 127.663 31.3291C128.858 32.1669 130.229 32.9656 131.717 33.4527C133.126 33.9592 134.615 34.1346 136.083 33.6085C136.044 32.1669 135.045 31.0369 133.831 30.1602V30.1991Z" fill="black"/>
<path d="M126.671 20.5932C125.242 19.9697 123.558 19.6385 121.992 19.5022C120.445 19.3658 118.898 19.4242 117.801 19.5216C116.705 19.6191 116 19.7359 116 19.7359C116 19.7359 116.587 20.1256 117.527 20.6516C118.467 21.1971 119.662 21.918 121.091 22.5414C121.815 22.8531 122.52 23.1648 123.245 23.4181C123.969 23.6714 124.733 23.8857 125.477 24.0221C126.221 24.1584 126.965 24.1974 127.69 24.1195C128.394 24.0415 129.06 23.8662 129.687 23.496C129.217 22.1712 128.042 21.2166 126.691 20.5737L126.671 20.5932Z" fill="black"/>
<path d="M113.509 13.6177C116.171 14.9425 119.5 15.9751 121.83 14.5724C121.341 13.2865 120.205 12.3903 118.874 11.7474C117.542 11.1045 115.897 10.7928 114.37 10.6369C111.296 10.3252 108.555 10.6759 108.555 10.6759C108.555 10.6759 109.103 11.085 110.004 11.65C110.885 12.215 112.157 12.9358 113.528 13.5982L113.509 13.6177Z" fill="black"/>
<path d="M142.663 79.2738C144.347 79.566 145.933 79.1179 147.382 78.1633C148.165 77.6762 148.811 77.0333 149.458 76.3319C150.084 75.6306 150.672 74.8513 151.2 74.0525C152.199 72.4744 152.884 70.799 153.374 69.5521C153.804 68.3052 154 67.448 154 67.448C154 67.448 153.217 67.7987 152.062 68.4221C151.494 68.7338 150.848 69.104 150.104 69.5326C149.379 69.9612 148.616 70.4483 147.852 70.9743C146.344 72.0264 144.935 73.2537 143.838 74.637C143.779 74.6954 143.74 74.7734 143.701 74.8318C144.23 72.377 144.66 69.9223 144.993 67.448C146.403 67.3896 147.637 66.8051 148.694 65.9089C149.007 65.6362 149.321 65.3244 149.614 65.0127C149.888 64.6815 150.143 64.3503 150.397 63.9802C150.887 63.2593 151.318 62.48 151.69 61.6812C151.866 61.2916 152.042 60.8825 152.199 60.4928C152.336 60.1032 152.473 59.733 152.59 59.3628C152.825 58.6225 153.021 57.9406 153.158 57.3367C153.452 56.1483 153.53 55.3495 153.53 55.3495C153.53 55.3495 152.825 55.7391 151.768 56.382C150.711 57.025 149.34 57.9601 148.048 59.0706C147.402 59.6161 146.775 60.2201 146.207 60.863C145.972 61.1357 145.737 61.4085 145.522 61.6812C145.639 59.5966 145.679 57.4925 145.6 55.4079C146.599 55.1352 147.46 54.5897 148.204 53.8299C148.753 53.2649 149.242 52.6025 149.653 51.9011C150.045 51.1803 150.378 50.401 150.632 49.6217C150.887 48.8424 151.142 48.0631 151.279 47.3033C151.416 46.563 151.514 45.8421 151.572 45.2382C151.631 44.6342 151.67 44.1277 151.69 43.777C151.69 43.4263 151.69 43.212 151.69 43.212C151.69 43.212 151.533 43.3289 151.259 43.5237C150.985 43.7185 150.593 44.0108 150.123 44.3809C149.203 45.1213 147.989 46.1343 146.873 47.3033C146.599 47.5955 146.325 47.9072 146.07 48.2189C145.796 48.5307 145.542 48.8424 145.287 49.1736C145.209 49.271 145.17 49.3489 145.091 49.4463C144.817 47.4397 144.445 45.4525 143.956 43.4847C144.895 43.1341 145.659 42.5106 146.246 41.7119C147.186 40.5234 147.617 38.9064 147.852 37.2894C147.911 36.8802 147.97 36.4906 147.989 36.0815C147.989 35.6918 147.989 35.2827 147.989 34.9125C147.97 34.1527 147.911 33.4319 147.852 32.8279C147.793 32.224 147.695 31.7174 147.597 31.3667C147.519 31.0161 147.46 30.8212 147.46 30.8212C147.46 30.8212 146.951 31.3278 146.266 32.1655C145.581 33.0033 144.602 34.1527 143.779 35.4385C143.368 36.0815 142.996 36.7439 142.663 37.4452C142.526 37.6985 142.428 37.9518 142.311 38.2245C141.488 35.9451 140.588 33.841 139.589 31.8928C140.607 31.4447 141.312 30.6459 141.763 29.6523C142.272 28.3859 142.35 26.7689 142.174 25.1714C141.919 23.6128 141.469 22.0542 141.018 20.9437C140.549 19.8332 140.157 19.1124 140.157 19.1124C140.157 19.1124 139.804 19.6773 139.335 20.554C139.1 21.0021 138.845 21.5282 138.61 22.0932C138.375 22.6776 138.081 23.3205 137.846 24.0024C137.611 24.6843 137.396 25.3662 137.279 26.0675C137.22 26.4182 137.161 26.7689 137.142 27.1196C137.142 27.2365 137.142 27.3729 137.122 27.4898C135.673 25.2298 134.087 23.1452 132.344 21.0996C132.834 20.8463 133.225 20.5346 133.519 20.1449C133.891 19.6579 134.107 19.0929 134.204 18.45C134.302 17.807 134.283 17.1252 134.165 16.3848C134.048 15.664 133.872 14.9042 133.578 14.2028C133.03 12.8001 132.305 11.4168 131.679 10.4427C131.032 9.48809 130.543 8.86465 130.543 8.86465C130.543 8.86465 130.308 9.42964 130.034 10.3063C129.76 11.1831 129.466 12.3715 129.27 13.7158C129.094 15.0406 129.094 16.4433 129.446 17.7486C129.466 17.846 129.486 17.9239 129.525 18.0213C127.488 15.8978 125.237 13.7937 122.789 11.5922C125.217 10.2284 124.551 7.384 123.2 4.79285C122.495 3.5265 121.634 2.35756 120.929 1.48085C120.244 0.62363 119.715 0.078125 119.715 0.078125C119.715 0.078125 119.03 2.27963 119.049 4.77337C119.049 6.02023 119.265 7.32555 119.793 8.55294C119.911 8.80621 120.028 9.04 120.165 9.27378C117.933 7.30607 114.037 5.27991 114.037 5.27991C129.525 18.1772 141.332 33.7825 143.094 51.6673C143.721 58.1549 142.937 64.6426 141.919 71.0912C140.784 78.3581 138.923 85.6055 135.144 92.3464C129.29 102.769 121.477 111.108 110.865 117.615C110.865 117.615 94.9262 125.564 77.8325 125.739C77.4213 125.739 77.0101 125.739 76.5989 125.739C76.4031 125.739 76.2073 125.739 76.0115 125.739C59.1332 125.505 42.9793 117.615 42.9793 117.615C32.3667 111.108 24.5541 102.769 18.6996 92.3464C14.9206 85.6055 13.08 78.3581 11.9248 71.0912C10.9066 64.6426 10.1234 58.1744 10.7499 51.6673C12.5122 33.7825 24.3388 18.1772 39.8073 5.27991C39.8073 5.27991 35.9108 7.30607 33.6786 9.27378C33.8157 9.04 33.9527 8.80621 34.0506 8.55294C34.5597 7.32555 34.7751 6.02023 34.7947 4.77337C34.8143 2.27963 34.129 0.078125 34.129 0.078125C34.129 0.078125 33.6199 0.62363 32.915 1.48085C32.2297 2.33807 31.3485 3.50701 30.6437 4.79285C29.2926 7.384 28.6269 10.2479 31.0548 11.6117C28.6073 13.8132 26.3555 15.9173 24.3192 18.0408C24.3388 17.9434 24.3779 17.8655 24.3975 17.7681C24.7695 16.4628 24.7695 15.06 24.5737 13.7352C24.3779 12.4104 24.0842 11.2025 23.8101 10.3258C23.536 9.44912 23.301 8.88414 23.301 8.88414C23.301 8.88414 22.8115 9.50757 22.1849 10.4622C21.5583 11.4363 20.8339 12.8196 20.2856 14.2223C19.9919 14.9237 19.8157 15.664 19.6982 16.4043C19.5807 17.1252 19.5611 17.8265 19.659 18.4694C19.7569 19.1124 19.9723 19.6773 20.3444 20.1644C20.6381 20.5541 21.0297 20.8658 21.5192 21.119C19.7765 23.1452 18.1709 25.2493 16.7416 27.5092C16.7416 27.3729 16.722 27.256 16.722 27.1391C16.7024 26.7884 16.6437 26.4377 16.5849 26.087C16.4478 25.3857 16.252 24.6843 16.0171 24.0219C15.7821 23.3595 15.4884 22.6971 15.2534 22.1321C14.9989 21.5476 14.7444 21.0216 14.529 20.593C14.0786 19.6968 13.7262 19.1513 13.7262 19.1513C13.7262 19.1513 13.3346 19.8722 12.8646 20.9827C12.4143 22.1126 11.9639 23.6517 11.7094 25.2103C11.5332 26.7884 11.6115 28.4249 12.1206 29.6913C12.5709 30.6849 13.2758 31.4836 14.294 31.9317C13.2954 33.8994 12.3947 35.984 11.5723 38.2635C11.4744 38.0102 11.3569 37.7375 11.2199 37.4842C10.887 36.8023 10.515 36.1204 10.1038 35.4775C9.28141 34.1917 8.32197 33.0422 7.61708 32.2045C6.93176 31.3667 6.42267 30.8602 6.42267 30.8602C6.42267 30.8602 6.38351 31.055 6.28561 31.4057C6.20729 31.7564 6.08981 32.2629 6.03106 32.8669C5.97232 33.4708 5.91358 34.1917 5.894 34.9515C5.894 35.3411 5.894 35.7308 5.894 36.1204C5.91358 36.5296 5.97232 36.9192 6.03106 37.3283C6.26603 38.9454 6.71638 40.5429 7.63666 41.7508C8.24365 42.5691 8.98771 43.173 9.92757 43.5237C9.43806 45.4914 9.06603 47.4786 8.7919 49.4853C8.73316 49.3879 8.67442 49.31 8.5961 49.2125C8.36113 48.8813 8.08701 48.5696 7.81288 48.2579C7.55834 47.9462 7.28421 47.6345 7.01008 47.3422C5.894 46.1733 4.6996 45.1407 3.75974 44.4199C3.28981 44.0497 2.8982 43.7575 2.62407 43.5627C2.34995 43.3679 2.1933 43.251 2.1933 43.251C2.1933 43.251 2.1933 43.4653 2.1933 43.8159C2.21288 44.1666 2.25204 44.6732 2.31078 45.2771C2.36953 45.8811 2.46743 46.6019 2.60449 47.3422C2.72197 48.1021 2.97652 48.8813 3.23106 49.6606C3.50519 50.4399 3.83806 51.2192 4.22967 51.9401C4.64085 52.6609 5.13036 53.3233 5.67862 53.8688C6.42267 54.6091 7.28421 55.1547 8.28281 55.4469C8.20449 57.5315 8.24365 59.6356 8.36113 61.7202C8.14575 61.4474 7.93036 61.1747 7.67582 60.9019C7.10799 60.259 6.48141 59.6746 5.83526 59.1096C4.54295 57.9991 3.17232 57.0834 2.11498 56.421C1.05764 55.7586 0.352743 55.3884 0.352743 55.3884C0.352743 55.3884 0.431064 56.2067 0.724771 57.3756C0.861833 57.9601 1.05764 58.6615 1.2926 59.3823C1.41009 59.7525 1.54715 60.1227 1.68421 60.5123C1.84085 60.9019 2.01708 61.3111 2.1933 61.7007C2.56533 62.4995 2.9961 63.2788 3.48561 63.9996C3.72057 64.3503 3.9947 64.701 4.26883 65.0322C4.56253 65.3634 4.87582 65.6556 5.18911 65.9284C6.24645 66.8441 7.4996 67.409 8.8898 67.4675C9.22267 69.9417 9.65344 72.416 10.1821 74.8513C10.143 74.7928 10.0842 74.7149 10.045 74.6565C8.94855 73.2927 7.53876 72.0653 6.03106 70.9938C5.28701 70.4678 4.50379 69.9807 3.77932 69.5521C3.05484 69.1235 2.40869 68.7533 1.82127 68.4416C0.666029 67.8182 -0.117188 67.4675 -0.117188 67.4675C-0.117188 67.4675 0.0786167 68.3247 0.509386 69.5716C0.998896 70.8379 1.68421 72.4939 2.68281 74.072C3.21148 74.8708 3.77932 75.6501 4.42547 76.3514C5.07162 77.0528 5.71778 77.6762 6.50099 78.1828C7.94994 79.1179 9.53596 79.5855 11.2199 79.2933C11.2982 79.605 11.3765 79.9167 11.4548 80.2284C12.0423 82.4104 12.7471 84.573 13.5891 86.6965C13.4325 86.5407 13.2758 86.3848 13.0996 86.2095C12.7471 85.8978 12.3751 85.586 11.9835 85.2938C11.5919 85.0016 11.2199 84.7093 10.8087 84.4366C9.98631 83.8911 9.12477 83.3845 8.24365 82.9365C7.38211 82.4689 6.46183 82.0792 5.65904 81.7091C4.85624 81.3389 4.11218 81.0272 3.46603 80.7739C2.17372 80.2674 1.2926 79.9751 1.2926 79.9751C1.2926 79.9751 1.66463 80.8518 2.33036 82.1182C2.66323 82.7611 3.15274 83.482 3.68141 84.2418C4.21008 85.0016 4.81708 85.8004 5.48281 86.5602C6.20729 87.32 6.97092 88.0603 7.77372 88.7032C8.16533 89.0344 8.57652 89.3267 9.00729 89.5994C9.22267 89.7358 9.41848 89.8527 9.63386 89.9891C9.86883 90.1059 10.0842 90.2228 10.2996 90.3203C12.0227 91.0995 13.7653 91.3333 15.4101 90.7878C16.6045 93.1647 17.9751 95.5025 19.5807 97.743C19.3262 97.5482 19.0716 97.3729 18.7975 97.1975C18.3667 96.9248 17.8968 96.6715 17.4269 96.4377C16.9765 96.1844 16.5066 95.9701 16.0367 95.7363C15.0772 95.3077 14.059 94.9181 13.0604 94.5869C12.5513 94.4115 12.0618 94.2557 11.5527 94.1193C11.0632 93.9829 10.5933 93.8271 10.143 93.6907C9.24225 93.4179 8.4003 93.2036 7.67582 93.0283C6.22687 92.6776 5.26743 92.5023 5.26743 92.5023C5.26743 92.5023 5.85484 93.3595 6.85344 94.5869C7.32337 95.2103 8.00869 95.8727 8.73316 96.5936C9.47722 97.2949 10.28 98.0353 11.1416 98.7366C12.0618 99.4185 13.0409 100.042 14.0199 100.568C14.5094 100.841 15.0185 101.075 15.508 101.289C15.9975 101.503 16.487 101.678 17.0157 101.815C19.0129 102.341 20.8534 102.302 22.4003 101.425C23.9471 103.354 25.5919 105.302 27.3346 107.192C27.2562 107.153 27.1975 107.134 27.1192 107.095C26.8646 106.997 26.6101 106.9 26.336 106.802C26.0814 106.705 25.8269 106.607 25.5723 106.53C25.0437 106.354 24.515 106.198 23.9667 106.062C22.8702 105.789 21.7541 105.555 20.6381 105.38C19.5024 105.205 18.4842 105.029 17.4856 104.913C16.5066 104.796 15.5863 104.698 14.8031 104.62C13.2367 104.484 12.2185 104.445 12.2185 104.445C12.2185 104.445 13.0409 105.224 14.3919 106.315C14.7248 106.588 15.0968 106.88 15.4884 107.172C15.88 107.465 16.3499 107.757 16.8199 108.069C17.7597 108.673 18.7779 109.277 19.8353 109.842C20.1094 109.978 20.3639 110.114 20.6381 110.251C20.9122 110.368 21.2059 110.504 21.4996 110.601C22.0674 110.835 22.6548 111.049 23.2227 111.225C24.3583 111.614 25.494 111.887 26.5513 112.024C28.3723 112.218 29.9975 111.985 31.2702 111.205C32.6996 112.569 34.1877 113.894 35.7346 115.141C35.2646 115.082 34.7947 115.004 34.3052 114.965C33.1304 114.848 31.8968 114.829 30.7807 114.79C28.5094 114.712 26.3164 114.81 24.6912 114.926C23.8884 114.985 23.2227 115.043 22.7527 115.082C22.3024 115.121 22.0478 115.16 22.0478 115.16C22.0478 115.16 22.1066 115.199 22.2241 115.277C22.3416 115.355 22.5178 115.452 22.7527 115.589C23.2227 115.862 23.8884 116.232 24.7108 116.68C25.5332 117.108 26.4926 117.596 27.5499 118.083C28.6464 118.531 29.8213 118.979 31.0353 119.368C31.6423 119.563 32.2492 119.739 32.8562 119.914C33.1695 119.992 33.4632 120.07 33.7765 120.148C34.0898 120.206 34.4031 120.265 34.7164 120.323C35.9695 120.518 37.1639 120.615 38.28 120.596C39.8073 120.557 41.1192 120.245 42.1765 119.622C42.7639 119.953 43.3318 120.284 43.9388 120.596C44.0758 120.674 44.1737 120.693 44.252 120.674C52.28 125.077 62.2269 127.785 70.4115 128.759C63.852 129.967 56.1569 131.311 47.9919 132.538L39.1611 140C39.1611 140 59.0157 133.415 77.5388 129.226C96.0618 133.415 115.916 140 115.916 140L107.086 132.538C98.7052 131.272 90.8143 129.889 84.1569 128.661C94.28 127.512 102.798 124.551 109.611 120.674C109.69 120.674 109.749 120.654 109.846 120.596C110.434 120.284 111.021 119.953 111.609 119.622C112.646 120.245 113.978 120.557 115.505 120.596C116.621 120.635 117.816 120.518 119.069 120.323C119.382 120.265 119.695 120.226 120.009 120.148C120.322 120.07 120.616 119.992 120.929 119.914C121.536 119.758 122.163 119.563 122.77 119.368C123.984 118.979 125.158 118.531 126.255 118.083C127.312 117.596 128.272 117.108 129.094 116.66C129.916 116.232 130.582 115.842 131.052 115.569C131.287 115.433 131.463 115.336 131.581 115.258C131.698 115.18 131.757 115.141 131.757 115.141C131.757 115.141 131.502 115.121 131.052 115.063C130.582 115.024 129.916 114.965 129.114 114.907C127.488 114.79 125.315 114.693 123.044 114.771C121.928 114.829 120.694 114.829 119.519 114.965C119.049 115.004 118.56 115.063 118.09 115.141C119.637 113.894 121.125 112.569 122.554 111.205C123.827 111.965 125.452 112.199 127.273 112.024C128.33 111.887 129.466 111.614 130.602 111.244C131.17 111.049 131.757 110.835 132.325 110.601C132.618 110.484 132.893 110.368 133.186 110.251C133.46 110.114 133.735 109.978 133.989 109.842C135.046 109.277 136.065 108.673 137.004 108.069C137.474 107.757 137.925 107.484 138.336 107.172C138.728 106.861 139.1 106.588 139.432 106.315C140.764 105.224 141.606 104.445 141.606 104.445C141.606 104.445 140.588 104.484 139.021 104.62C138.238 104.698 137.318 104.776 136.339 104.913C135.34 105.029 134.322 105.205 133.186 105.38C132.07 105.555 130.954 105.789 129.858 106.062C129.309 106.198 128.781 106.354 128.252 106.53C127.997 106.607 127.743 106.705 127.488 106.802C127.234 106.9 126.96 106.978 126.705 107.075C126.627 107.095 126.568 107.133 126.49 107.172C128.232 105.263 129.877 103.334 131.424 101.406C132.971 102.282 134.831 102.321 136.809 101.795C137.318 101.659 137.807 101.484 138.316 101.269C138.806 101.055 139.315 100.821 139.804 100.548C140.784 100.022 141.763 99.3795 142.683 98.7171C143.544 98.0158 144.367 97.2949 145.111 96.5741C145.835 95.8727 146.521 95.1908 146.99 94.5674C147.989 93.34 148.577 92.4828 148.577 92.4828C148.577 92.4828 147.617 92.6581 146.168 93.0088C145.444 93.1842 144.602 93.4179 143.701 93.6712C143.251 93.8076 142.781 93.944 142.291 94.0998C141.802 94.2557 141.293 94.4115 140.784 94.5869C139.765 94.9181 138.767 95.3077 137.807 95.7363C137.318 95.9506 136.848 96.1844 136.417 96.4377C135.947 96.6715 135.497 96.9248 135.066 97.1975C134.792 97.3729 134.518 97.5482 134.263 97.743C135.869 95.5025 137.239 93.1647 138.434 90.7878C140.098 91.3528 141.841 91.0995 143.544 90.3203C143.76 90.2228 143.995 90.1059 144.21 89.9891C144.425 89.8722 144.621 89.7358 144.837 89.5994C145.248 89.3267 145.659 89.0344 146.07 88.7032C146.873 88.0603 147.637 87.32 148.361 86.5602C149.027 85.8004 149.614 85.0016 150.163 84.2418C150.672 83.482 151.181 82.7611 151.514 82.1182C152.179 80.8518 152.551 79.9751 152.551 79.9751C152.551 79.9751 151.67 80.2674 150.378 80.7739C149.732 81.0272 148.968 81.3389 148.185 81.7091C147.402 82.0792 146.481 82.4884 145.6 82.9365C144.719 83.3845 143.838 83.8911 143.035 84.4366C142.624 84.7093 142.252 85.0016 141.86 85.2938C141.469 85.586 141.097 85.8783 140.744 86.2095C140.568 86.3653 140.411 86.5212 140.255 86.6771C141.097 84.5535 141.802 82.3909 142.389 80.2089C142.467 79.8972 142.546 79.5855 142.624 79.2933L142.663 79.2738Z" fill="black"/>
<path d="M48.0938 41.5234L54.338 47.7406L48.0938 53.9578L41.8495 47.7406L48.0938 41.5234Z" fill="black"/>
<path d="M108.219 41.5234L114.463 47.7406L108.219 53.9578L101.975 47.7406L108.219 41.5234Z" fill="black"/>
<path d="M78.1562 47.0195L84.4005 53.2367L78.1562 59.4539L71.912 53.2367L78.1562 47.0195Z" fill="black"/>
<path d="M78.1562 59.4375L84.4005 65.6547L78.1562 71.8719L71.912 65.6547L78.1562 59.4375Z" fill="black"/>
<path fill-rule="evenodd" clip-rule="evenodd" d="M102.662 59.5883L96.418 53.3711L90.3119 59.4508L90.2989 59.4379L84.0547 65.655L90.2989 71.8722L96.37 65.8274L102.441 71.8722L108.685 65.655L102.627 59.6231L102.662 59.5883Z" fill="black"/>
<path fill-rule="evenodd" clip-rule="evenodd" d="M84.4512 77.9672L78.207 71.75L72.1009 77.8297L72.088 77.8168L65.8438 84.0339L72.088 90.2511L78.1591 84.2063L84.2302 90.2511L90.4745 84.0339L84.4163 78.002L84.4512 77.9672Z" fill="black"/>
<path fill-rule="evenodd" clip-rule="evenodd" d="M84.2232 40.7925L90.2943 46.8373L96.5385 40.6201L90.4804 34.5882L90.5153 34.5533L84.2711 28.3362L78.2001 34.3809L72.1289 28.3359L66.0227 34.4157L66.0098 34.4029L59.7656 40.6201L66.0098 46.8373L72.0809 40.7925L78.152 46.8373L78.1521 46.8372L78.1521 46.8373L84.2232 40.7925Z" fill="black"/>
<path fill-rule="evenodd" clip-rule="evenodd" d="M66.2325 59.5883L59.9883 53.3711L53.8822 59.4508L53.8692 59.4379L47.625 65.655L53.8692 71.8722L59.9404 65.8274L66.0115 71.8722L72.2557 65.655L66.1975 59.6231L66.2325 59.5883Z" fill="black"/>
</g>
<defs>
<clipPath id="clip0_1116_4050">
<rect width="154" height="140" fill="white"/>
</clipPath>
</defs>
</svg>
