<svg width="120" height="120" viewBox="0 0 120 120" fill="none" xmlns="http://www.w3.org/2000/svg">
<g clipPath="url(#clip0_441_1125)">
<path fillRule="evenodd" clipRule="evenodd" d="M78.1549 4.81392C91.7276 44.6456 67.6994 79.6817 35.0844 101.559C34.5249 101.936 34.3736 102.697 34.7504 103.256C35.1273 103.816 35.8879 103.967 36.4474 103.59C69.9771 81.1018 94.4224 44.9711 80.4689 4.02368C80.2528 3.38533 79.5578 3.04433 78.9167 3.26183C78.2784 3.47792 77.9375 4.17281 78.1549 4.81392Z" fill="black"/>
<path fillRule="evenodd" clipRule="evenodd" d="M36.3753 102.166C37.3406 100.246 38.5786 97.8497 38.7112 97.5737C42.3038 90.0941 44.5436 82.4582 45.745 74.2305C45.8434 73.5629 45.3789 72.9408 44.7112 72.8424C44.0436 72.7441 43.4215 73.2085 43.3232 73.8762C42.1607 81.8549 39.9905 89.2611 36.5047 96.516C36.3018 96.939 33.5153 102.323 33.0337 103.455C32.8339 103.918 32.8648 104.242 32.8794 104.317C32.9413 104.723 33.1493 104.959 33.344 105.109C33.5651 105.277 33.9976 105.465 34.5984 105.365C35.2268 105.258 36.4694 104.718 36.7941 104.607C41.6973 102.948 47.0252 100.669 52.3728 99.5665C57.4725 98.5142 62.5964 98.5314 67.344 101.395C67.9216 101.744 68.6748 101.555 69.0239 100.978C69.373 100.4 69.1848 99.6468 68.6072 99.2978C63.2986 96.0979 57.5787 95.994 51.8798 97.1695C46.5638 98.2667 41.2659 100.489 36.3753 102.166Z" fill="black"/>
</g>
<defs>
<clipPath id="clip0_441_1125">
<rect width="88.5561" height="88.5561" fill="white" transform="translate(0 40.3811) rotate(-27.1285)"/>
</clipPath>
</defs>
</svg>
