<svg width="20" height="20" viewBox="0 0 20 20" fill="none" xmlns="http://www.w3.org/2000/svg">
<path fillRule="evenodd" clipRule="evenodd" d="M1.78219 10.7496C2.40335 8.2944 2.36267 5.93003 2.43711 3.43966C2.45158 2.95331 2.05857 2.54897 1.55978 2.53432C1.06068 2.51967 0.644157 2.90349 0.629389 3.38984C0.558865 5.7513 0.615833 7.99847 0.0263232 10.3306C-0.0930256 10.8023 0.203846 11.2799 0.688474 11.3942C1.1728 11.5113 1.66314 11.2213 1.78219 10.7496Z" fill="black"/>
<path fillRule="evenodd" clipRule="evenodd" d="M7.0597 15.5083C11.2737 11.764 15.2441 6.94736 18.0193 2.08382C18.2613 1.65899 18.1037 1.12281 17.6673 0.888421C17.2309 0.654034 16.6799 0.806398 16.4379 1.23122C13.7544 5.93362 9.91443 10.5921 5.8397 14.2104C5.47141 14.5386 5.44579 15.0952 5.78243 15.4527C6.11908 15.8101 6.69141 15.8365 7.0597 15.5083Z" fill="black"/>
<path fillRule="evenodd" clipRule="evenodd" d="M8.12701 19.5975C11.9811 20.2157 15.9537 19.161 19.4582 17.6697C19.9154 17.4734 20.124 16.9548 19.9241 16.5124C19.724 16.0671 19.1903 15.8649 18.7331 16.0583C15.5414 17.4177 11.9317 18.4256 8.42146 17.8631C7.929 17.784 7.46336 18.1092 7.38229 18.5867C7.30091 19.0643 7.63485 19.5184 8.12701 19.5975Z" fill="black"/>
</svg>
