<svg width="212" height="35" viewBox="0 0 212 35" fill="none" xmlns="http://www.w3.org/2000/svg">
<path d="M47.8432 23.1562V24.7441H39.7052V9.98984H41.3593V23.1562H47.8432ZM61.2081 18.6571C61.2081 22.4946 58.8262 24.8103 54.9888 24.8103C51.1514 24.8103 48.7695 22.4946 48.7695 18.6571V9.98984H50.4897V18.6571C50.4897 21.5021 52.21 23.2224 54.9888 23.2224C57.7676 23.2224 59.4878 21.5021 59.4878 18.6571V9.98984H61.2081V18.6571ZM75.83 24.7441H73.8451L69.3461 18.591L64.9132 24.7441H62.9283L68.3536 17.1354L63.2591 9.98984H65.244L69.3461 15.6798L73.4481 9.98984H75.433L70.3385 17.0692L75.7638 24.7441H75.83ZM90.1211 18.6571C90.1211 22.4946 87.8054 24.8103 83.968 24.8103C80.1306 24.8103 77.7487 22.4946 77.7487 18.6571V9.98984H79.4028V18.6571C79.4028 21.5021 81.123 23.2224 83.968 23.2224C86.813 23.2224 88.4009 21.5021 88.4009 18.6571V9.98984H90.1211V18.6571ZM100.244 20.0465H95.2818V24.6779H93.6277V9.98984H99.2515C102.89 9.98984 105.008 11.7762 105.008 14.952C105.008 17.4 103.883 19.0541 101.7 19.7157L105.206 24.7441H103.221L100.244 20.0465ZM99.2515 18.4586C101.898 18.4586 103.42 17.2677 103.42 14.952C103.42 12.6363 101.898 11.6439 99.2515 11.6439H95.2818V18.4586H99.2515ZM113.278 24.7441H111.624V19.7157L105.868 9.98984H107.654L112.418 17.6647L117.115 9.98984H118.902L113.278 19.7157V24.7441ZM122.739 12.2394V16.2091H130.017V18.4586H122.739V22.4946H131.076V24.7441H120.291V9.98984H130.877V12.2394H122.739ZM143.514 11.3793L142.456 13.5626C141.16 12.7591 139.679 12.3033 138.155 12.2394C136.7 12.2394 135.707 12.7687 135.707 13.7611C135.707 17.0031 143.647 15.2828 143.647 20.5759C143.647 23.2224 141.331 24.8103 138.089 24.8103C135.89 24.7807 133.776 23.9584 132.134 22.4946L133.193 20.3112C134.533 21.6083 136.293 22.3829 138.155 22.4946C139.875 22.4946 140.934 21.8329 140.934 20.7082C140.934 17.4 132.994 19.2526 132.994 14.0258C132.994 11.4454 135.112 9.85751 138.287 9.85751C140.14 9.84942 141.956 10.378 143.514 11.3793ZM158.07 12.1732L156.614 14.0258C156.096 13.4452 155.465 12.9758 154.76 12.646C154.055 12.3163 153.29 12.1329 152.512 12.107C151.126 12.107 149.797 12.6577 148.816 13.6379C147.836 14.6182 147.286 15.9476 147.286 17.3339C147.286 18.7201 147.836 20.0496 148.816 21.0298C149.797 22.01 151.126 22.5607 152.512 22.5607C154.057 22.5076 155.523 21.869 156.614 20.7743L158.136 22.4284C156.594 23.9305 154.533 24.7831 152.38 24.8103C151.382 24.8368 150.388 24.663 149.458 24.2991C148.528 23.9353 147.68 23.3888 146.965 22.6919C146.249 21.995 145.681 21.1618 145.293 20.2416C144.905 19.3213 144.705 18.3326 144.705 17.3339C144.705 13.1656 148.08 9.92368 152.446 9.92368C154.54 9.92197 156.555 10.7277 158.07 12.1732ZM161.974 21.436L160.584 24.7441H157.938L164.554 9.98984H167.068L173.486 24.7441H170.839L169.45 21.436H161.974ZM165.679 12.6363L162.966 19.1864H168.524L165.679 12.6363ZM180.698 9.92368C184.403 9.92368 186.52 11.8424 186.52 15.0182C186.52 18.3263 184.403 20.3112 180.698 20.3112H177.323V24.7441H174.809V9.98984L180.698 9.92368ZM177.323 18.0617H180.632C182.881 18.0617 184.204 17.0692 184.204 15.0844C184.204 13.0995 182.881 12.2394 180.632 12.2394H177.323V18.0617ZM190.887 12.2394V16.2091H198.032V18.4586H190.754V22.4946H199.091V24.7441H188.306V9.98984H198.892V12.2394H190.821H190.887ZM211.596 11.3793L210.537 13.5626C209.241 12.7591 207.76 12.3033 206.236 12.2394C204.781 12.2394 203.855 12.7687 203.855 13.7611C203.855 17.0031 211.794 15.2828 211.794 20.5759C211.794 23.2224 209.478 24.8103 206.236 24.8103C204.015 24.7966 201.874 23.9733 200.216 22.4946L201.274 20.3112C202.614 21.6083 204.375 22.3829 206.236 22.4946C208.023 22.4946 209.015 21.8329 209.015 20.7082C209.015 17.4 201.076 19.2526 201.076 14.0258C201.076 11.4454 203.259 9.85751 206.435 9.85751C208.265 9.86212 210.056 10.3901 211.596 11.3793ZM21.5105 14.2242C21.8413 13.5626 22.503 12.2394 21.9737 11.5777C21.4444 10.9161 20.5181 12.0409 20.1873 12.4379C19.0535 13.9068 18.3032 15.6349 18.0039 17.4662C18.7867 17.1897 19.5031 16.7526 20.107 16.1829C20.7108 15.6132 21.1889 14.9235 21.5105 14.1581" fill="black"/>
<path d="M26.1414 28.8465C27.0946 28.2626 27.9629 27.5502 28.7217 26.7293C29.5819 25.7439 30.3154 24.6548 30.9051 23.4873C30.1529 24.936 29.1441 26.2362 27.9278 27.3248C28.7316 26.5082 29.4622 25.6226 30.1112 24.6783C27.597 28.0526 20.1868 31.2945 15.82 29.7066C15.5554 29.5743 16.217 29.6405 16.217 29.5743C19.6461 29.7762 23.0183 28.6301 25.6141 26.3804C28.2098 24.1307 29.8237 20.9556 30.1112 17.5327V16.7388C30.1579 13.7423 29.1809 10.8195 27.3418 8.45341C25.5027 6.08729 22.9113 4.41937 19.996 3.72524C17.0807 3.03111 14.0158 3.35231 11.3077 4.63576C8.59958 5.91921 6.41036 8.08812 5.10171 10.7841C3.37488 14.2149 3.08087 18.191 4.28428 21.8384C5.4877 25.4859 8.09008 28.5063 11.5195 30.2359C11.3138 30.1147 11.115 29.9821 10.924 29.8389C12.2208 30.5851 13.6277 31.1211 15.0923 31.4268C13.8546 31.187 12.6535 30.7866 11.5195 30.2359C14.8276 32.2208 19.9221 32.0223 23.4287 30.5667L22.304 30.8975C21.3102 31.1772 20.2904 31.3546 19.2605 31.4268L22.304 30.8975C23.3919 30.5885 24.4366 30.1439 25.4136 29.5743C25.2813 29.5743 25.4136 29.5743 25.8106 29.2435C26.2724 28.9654 26.7145 28.6559 27.1338 28.3172H27.2C28.0412 27.6147 28.7963 26.8152 29.4495 25.9354L28.7217 26.7293C27.9574 27.5709 27.0641 28.2856 26.0752 28.8465M19.9221 10.321C20.2162 10.221 20.5287 10.187 20.8374 10.2213C21.1462 10.2556 21.4435 10.3574 21.7085 10.5195C22.3652 10.8402 22.9503 11.2903 23.4287 11.8427C24.355 13.0998 23.3626 14.5554 22.5025 15.5478C21.5469 16.6177 20.3426 17.4358 18.9958 17.9297C18.7312 17.9958 18.0034 18.1282 17.9372 18.3267C17.8567 18.6972 17.8567 19.0808 17.9372 19.4514C18.0034 19.9807 18.2019 20.7747 18.8635 20.9732C19.1609 21.0723 19.4791 21.0915 19.7862 21.0288C20.0933 20.9661 20.3785 20.8236 20.6132 20.6158C20.8478 20.408 21.0237 20.1421 21.123 19.8448C21.2224 19.5475 21.2418 19.2293 21.1792 18.9221C21.1729 18.7659 21.1507 18.6107 21.1131 18.459C21.0501 18.3337 21.0055 18.2 20.9807 18.062C20.9807 17.665 21.4439 17.7312 21.6424 17.8635C22.304 18.1282 22.5025 18.2605 22.4363 18.856C22.326 19.6044 21.9522 20.2889 21.3821 20.7862C20.812 21.2835 20.0831 21.5609 19.3267 21.5686C17.4741 21.6348 16.6802 19.7822 16.4817 18.2605C16.4817 17.8635 16.4817 18.062 16.4817 18.2605C16.4234 16.6655 16.7407 15.079 17.4079 13.6291C17.8711 12.3059 18.665 10.7841 19.9883 10.321M13.5705 25.4061C13.1081 25.3273 12.634 25.3499 12.1811 25.4722C11.7841 25.6045 11.5195 25.9354 11.1887 26.1338C10.8579 26.3323 10.527 26.0677 10.6594 25.6707L10.9902 25.1414L11.1887 24.5459C11.5227 23.6183 11.7881 22.6675 11.9826 21.7009L14.3645 9.79169C13.7302 10.398 13.1543 11.0626 12.6442 11.7766C12.1149 12.5705 11.9165 14.4231 12.1149 14.6216C12.1944 14.6736 12.2617 14.7422 12.3123 14.8226C12.3629 14.903 12.3956 14.9933 12.4081 15.0875C12.4207 15.1817 12.4128 15.2774 12.3851 15.3683C12.3573 15.4591 12.3103 15.5429 12.2473 15.614C11.9826 15.9448 10.924 15.614 10.5932 15.217C9.13763 13.9599 10.4609 12.4382 11.2548 11.5119C11.9826 10.6518 14.2983 8.99773 14.4306 8.79925L15.0923 7.476C15.2297 7.15496 15.438 6.86917 15.7015 6.64002C15.965 6.41087 16.277 6.24429 16.614 6.15274C16.8125 6.15274 17.2756 5.95426 17.4741 6.15274C17.6726 6.35123 17.4741 6.81437 17.3418 7.07902C17.03 7.7819 16.7863 8.51303 16.614 9.26238L15.2907 14.5554C14.5998 17.1679 13.8719 19.7706 13.1074 22.3626C12.8539 23.1984 12.5445 24.0163 12.1811 24.8106C13.6367 24.4136 15.2246 24.8106 16.6802 24.7444C17.4251 24.736 18.1633 24.6018 18.8635 24.3475C19.1943 24.2151 20.1868 23.4212 20.2529 24.2151C20.3169 24.6501 20.2347 25.094 20.0192 25.4772C19.8036 25.8604 19.467 26.1612 19.062 26.3323C18.5842 26.4879 18.0797 26.5447 17.5792 26.4992C17.0788 26.4537 16.5928 26.3069 16.1509 26.0677C15.3122 25.6998 14.4175 25.4761 13.5044 25.4061" fill="black"/>
</svg>
