<svg width="218" height="173" viewBox="0 0 218 173" fill="none" xmlns="http://www.w3.org/2000/svg">
<g filter="url(#filter0_d_441_1114)">
<path d="M153.975 169.922C156.952 170.704 160.121 169.842 162.288 167.67L184.437 145.48C185.973 143.938 188.214 143.323 190.322 143.853L201.925 146.782C204.817 147.511 207.833 147.585 210.756 146.988L212.656 146.599C214.17 146.294 214.677 144.385 213.51 143.374L212.051 142.105C209.806 140.155 207.143 138.732 204.266 137.95L192.724 134.803C190.621 134.229 188.98 132.592 188.411 130.501L180.166 100.328C179.355 97.3676 177.026 95.0697 174.055 94.2863C177.224 107.306 176.976 122.465 176.699 128.744C176.663 129.601 175.832 130.2 175.004 129.971L175.02 127.377C175.031 126.111 174.058 125.058 172.79 124.961L169.393 124.694C168.934 124.66 168.472 124.777 168.092 125.029C167.688 125.291 167.207 125.405 166.733 125.355L165.515 125.224L166.764 125.794C167.154 125.972 167.472 126.264 167.691 126.63L168.051 127.252L168.647 128.237L166.2 127.569C164.626 127.141 163.008 126.915 161.377 126.891L153.172 126.781L152.289 117.695C152.098 115.747 150.592 114.191 148.641 113.933L145.699 113.545L147.009 126.701L144.724 126.674C144.352 126.667 144.218 127.168 144.546 127.345L146.545 128.439L138.877 139.239L141.652 140.353C143.464 141.082 145.538 140.479 146.67 138.893L152.023 131.431L159.13 135.323C160.556 136.105 162.081 136.705 163.661 137.101L166.119 137.723L165.111 138.285L164.487 138.644C164.118 138.857 163.69 138.954 163.263 138.921L161.891 138.805L163.018 139.292C163.46 139.479 163.819 139.819 164.035 140.242C164.242 140.648 164.586 140.979 165.004 141.171L168.091 142.609C169.238 143.141 170.608 142.706 171.233 141.602L172.51 139.338C173.346 139.546 173.769 140.475 173.376 141.237C170.506 146.837 163.193 160.137 153.971 169.904L153.975 169.922Z" fill="black"/>
</g>
<path d="M141.521 127.15C141.916 127.223 142.308 126.976 142.404 126.582C142.506 126.173 142.255 125.755 141.844 125.656C140.142 125.235 138.505 124.758 136.977 124.24C136.576 124.103 136.14 124.318 136.004 124.718C135.867 125.118 136.084 125.552 136.485 125.689C138.052 126.22 139.732 126.71 141.476 127.141C141.491 127.144 141.506 127.147 141.521 127.15ZM94.4459 118.02C96.1399 118.331 97.8607 118.595 99.5622 118.809C99.982 118.86 100.367 118.564 100.419 118.145C100.47 117.727 100.167 117.339 99.752 117.291C98.0786 117.08 96.3855 116.821 94.7217 116.516C94.304 116.438 93.9042 116.714 93.8297 117.131C93.7532 117.545 94.0307 117.944 94.4459 118.02ZM89.4253 116.954C89.8229 117.028 90.2151 116.779 90.3094 116.381C90.4086 115.972 90.1549 115.557 89.7439 115.457C88.1024 115.06 86.4495 114.612 84.8297 114.125C84.4228 114.003 83.9957 114.23 83.8739 114.636C83.752 115.041 83.9803 115.467 84.3871 115.589C86.0312 116.085 87.7138 116.542 89.383 116.944C89.3956 116.946 89.4107 116.949 89.4258 116.952L89.4253 116.954ZM104.628 119.295C104.658 119.3 104.686 119.305 104.717 119.306C106.436 119.422 108.178 119.49 109.889 119.508C110.313 119.511 110.659 119.174 110.664 118.752C110.667 118.33 110.325 117.984 109.904 117.979C108.221 117.963 106.51 117.895 104.82 117.779C104.396 117.75 104.029 118.069 104.003 118.492C103.978 118.884 104.25 119.225 104.63 119.295L104.628 119.295ZM131.824 123.818C132.161 123.88 132.508 123.711 132.658 123.389C132.836 123.007 132.67 122.551 132.284 122.373C130.714 121.644 129.23 120.835 127.873 119.967C127.517 119.738 127.043 119.842 126.813 120.197C126.584 120.551 126.688 121.027 127.044 121.253C128.459 122.158 130.005 123.002 131.637 123.76C131.697 123.787 131.758 123.808 131.821 123.82L131.824 123.818ZM79.5974 113.992C79.9597 114.059 80.3275 113.858 80.4582 113.503C80.6017 113.107 80.3968 112.667 79.9997 112.521C78.4075 111.941 76.8167 111.313 75.2694 110.645C74.8789 110.477 74.4295 110.656 74.2612 111.045C74.093 111.434 74.2729 111.882 74.6634 112.05C76.2374 112.728 77.8571 113.37 79.4764 113.957C79.5178 113.972 79.5601 113.983 79.6004 113.99L79.5974 113.992ZM114.889 119.393C114.947 119.404 115.006 119.407 115.069 119.406C115.786 119.37 116.51 119.325 117.225 119.273C118.256 119.197 119.271 119.099 120.238 118.983C120.658 118.933 120.958 118.551 120.908 118.132C120.858 117.713 120.473 117.413 120.053 117.463C119.108 117.576 118.117 117.672 117.106 117.747C116.405 117.799 115.694 117.844 114.99 117.879C114.567 117.9 114.24 118.259 114.261 118.681C114.28 119.042 114.546 119.333 114.889 119.396L114.889 119.393ZM70.169 109.94C70.4961 110.001 70.8375 109.843 70.9943 109.53C71.1838 109.153 71.0293 108.694 70.651 108.502C69.1335 107.744 67.6282 106.934 66.1701 106.094C65.8031 105.883 65.3327 106.006 65.122 106.372C64.9112 106.737 65.0353 107.206 65.4023 107.417C66.8837 108.272 68.4198 109.098 69.9636 109.868C70.0304 109.902 70.099 109.925 70.1669 109.937L70.169 109.94ZM123.235 118.267C123.487 118.313 123.757 118.233 123.943 118.029C124.227 117.716 124.205 117.232 123.89 116.949C122.662 115.835 121.55 114.591 120.582 113.251C120.334 112.907 119.856 112.829 119.511 113.076C119.166 113.323 119.091 113.802 119.337 114.143C120.367 115.568 121.551 116.892 122.856 118.077C122.965 118.178 123.097 118.238 123.233 118.264L123.235 118.267ZM125.066 118.131C125.165 118.149 125.269 118.148 125.372 118.125C127.16 117.732 128.853 117.247 130.398 116.685C130.797 116.541 131.001 116.101 130.856 115.704C130.71 115.309 130.269 115.103 129.871 115.247C128.389 115.787 126.762 116.251 125.042 116.63C124.627 116.722 124.367 117.13 124.46 117.541C124.528 117.85 124.778 118.075 125.069 118.129L125.066 118.131ZM61.2828 104.814C61.5772 104.868 61.8881 104.749 62.0622 104.483C62.2963 104.132 62.1997 103.656 61.8449 103.421C61.1701 102.975 60.4952 102.516 59.8368 102.052C59.116 101.545 58.3939 101.017 57.6928 100.488C57.3547 100.234 56.8744 100.298 56.6165 100.636C56.3617 100.973 56.4267 101.452 56.7643 101.709C57.4791 102.248 58.2149 102.786 58.9494 103.303C59.6195 103.775 60.3081 104.244 60.9945 104.698C61.0827 104.756 61.1796 104.795 61.2778 104.813L61.2828 104.814ZM134.634 114.554C134.81 114.586 134.997 114.559 135.164 114.46C136.741 113.528 138.159 112.447 139.377 111.254C139.679 110.957 139.683 110.473 139.385 110.171C139.086 109.87 138.601 109.865 138.298 110.162C137.169 111.271 135.852 112.274 134.379 113.143C134.014 113.358 133.894 113.828 134.113 114.19C134.23 114.388 134.422 114.515 134.634 114.554ZM53.0993 98.6321C53.3585 98.68 53.6372 98.5942 53.8202 98.3791C54.0979 98.0596 54.0599 97.5755 53.7386 97.3008C52.4588 96.2005 51.1967 95.0465 49.991 93.8691C49.6864 93.5742 49.2017 93.5779 48.9061 93.8811C48.6106 94.1843 48.6149 94.6674 48.9195 94.9623C50.1497 96.1623 51.4362 97.339 52.7384 98.459C52.8462 98.5515 52.971 98.6083 53.0993 98.6321ZM117.297 110.008C117.44 110.035 117.591 110.021 117.735 109.96C118.125 109.793 118.307 109.345 118.139 108.956C117.471 107.39 117.021 105.803 116.803 104.238C116.745 103.82 116.356 103.528 115.937 103.585C115.518 103.642 115.225 104.029 115.283 104.447C115.521 106.145 116.007 107.864 116.728 109.553C116.833 109.798 117.051 109.96 117.295 110.005L117.297 110.008ZM45.7547 91.4751C45.9812 91.517 46.2237 91.4581 46.4079 91.2925C46.7228 91.0111 46.7475 90.5256 46.4648 90.2114C45.3327 88.9595 44.2284 87.6557 43.1791 86.3362C42.9152 86.0047 42.4336 85.9493 42.1013 86.212C41.769 86.4747 41.7141 86.9546 41.978 87.2861C43.0463 88.6299 44.172 89.9583 45.3255 91.2349C45.4419 91.3654 45.5962 91.4458 45.7547 91.4751ZM141.663 107.32C141.996 107.382 142.341 107.217 142.493 106.901C143.121 105.604 143.572 104.235 143.831 102.833C143.897 102.477 143.95 102.119 143.99 101.766C144.036 101.347 143.742 100.968 143.313 100.92C142.893 100.871 142.512 101.173 142.463 101.592C142.428 101.91 142.378 102.235 142.318 102.556C142.084 103.822 141.678 105.062 141.109 106.235C140.925 106.616 141.085 107.073 141.467 107.256C141.529 107.285 141.595 107.308 141.661 107.32L141.663 107.32ZM116.006 100.006C116.421 100.083 116.82 99.8122 116.899 99.3989C117.107 98.3172 117.448 97.2731 117.914 96.2908C118.128 95.8377 118.382 95.3896 118.671 94.9579C118.905 94.6071 118.811 94.1307 118.458 93.897C118.106 93.6607 117.628 93.7564 117.394 94.1072C117.064 94.5984 116.773 95.1151 116.525 95.6372C116.008 96.7342 115.625 97.9004 115.394 99.1076C115.315 99.5233 115.587 99.9237 116.004 100.003L116.009 100.004L116.006 100.006ZM39.3801 83.4499C39.5738 83.4858 39.781 83.4489 39.9568 83.3285C40.3055 83.0896 40.3911 82.6127 40.151 82.2649C39.187 80.8782 38.2605 79.4439 37.395 78.0028C37.1757 77.6407 36.7057 77.5226 36.3431 77.7382C35.9801 77.9563 35.8622 78.4246 36.079 78.7862C36.9629 80.2541 37.9075 81.7176 38.8899 83.1311C39.009 83.3035 39.1893 83.4121 39.383 83.4479L39.3801 83.4499ZM142.715 97.3578C142.826 97.3782 142.944 97.3741 143.059 97.3435C143.468 97.2298 143.707 96.8099 143.592 96.4023C143.092 94.6036 142.229 92.9969 141.027 91.6284C140.748 91.3096 140.262 91.2768 139.945 91.5553C139.628 91.8338 139.593 92.3174 139.873 92.6337C140.922 93.8287 141.674 95.2333 142.114 96.8083C142.196 97.1008 142.436 97.3061 142.715 97.3578ZM121.508 91.7047C121.699 91.7401 121.906 91.7032 122.082 91.5852C123.407 90.6817 124.892 89.984 126.489 89.5118C126.896 89.3927 127.126 88.9658 127.006 88.5598C126.886 88.1538 126.457 87.9242 126.05 88.0433C124.299 88.5621 122.671 89.3268 121.212 90.3197C120.864 90.5586 120.773 91.0346 121.013 91.3824C121.134 91.5578 121.315 91.6663 121.508 91.7022L121.508 91.7047ZM34.1035 74.6659C34.2646 74.6957 34.4349 74.6753 34.5928 74.5956C34.9692 74.4034 35.1193 73.9436 34.9264 73.5657C34.1534 72.0613 33.4294 70.5167 32.7692 68.9787C32.6017 68.5899 32.1513 68.408 31.7614 68.5744C31.3715 68.7409 31.1896 69.1895 31.3571 69.5784C32.0318 71.1501 32.7708 72.726 33.5589 74.2618C33.6716 74.4823 33.877 74.624 34.1035 74.6659ZM136.189 89.8984C136.534 89.9622 136.89 89.7842 137.033 89.4476C137.201 89.0586 137.018 88.61 136.63 88.4423C135.03 87.7546 133.226 87.3743 131.354 87.326C130.929 87.3149 130.578 87.6493 130.568 88.0701C130.557 88.4934 130.893 88.8434 131.316 88.8541C132.994 88.8975 134.602 89.2365 136.025 89.8446C136.078 89.8674 136.135 89.8831 136.19 89.8934L136.189 89.8984ZM30.0726 65.254C30.1984 65.2772 30.3327 65.2684 30.4606 65.2246C30.8609 65.0861 31.0742 64.651 30.9346 64.2517C30.3819 62.6533 29.8815 61.0256 29.4516 59.4109C29.3425 59.0018 28.9218 58.758 28.5139 58.8666C28.1035 58.9748 27.8594 59.3938 27.969 59.8005C28.408 61.4505 28.917 63.1161 29.4843 64.7484C29.5772 65.0197 29.8088 65.2026 30.0705 65.251L30.0726 65.254ZM27.4461 55.368C27.5367 55.3848 27.6301 55.3865 27.7247 55.3677C28.1421 55.2919 28.4165 54.8915 28.3395 54.4779C28.0296 52.8051 27.7918 51.1222 27.6304 49.4769C27.5884 49.0568 27.2108 48.7484 26.7924 48.7876C26.371 48.829 26.0625 49.2023 26.1019 49.622C26.266 51.3093 26.511 53.0376 26.8286 54.7533C26.8887 55.0756 27.1417 55.3117 27.4436 55.3676L27.4461 55.368ZM26.4684 45.1933C26.5137 45.2017 26.5625 45.2055 26.6092 45.2064C27.0332 45.207 27.3753 44.8632 27.3754 44.4405C27.3711 42.7335 27.4549 41.0427 27.626 39.4148C27.6698 38.995 27.362 38.6191 26.9408 38.5749C26.5195 38.5307 26.1407 38.834 26.0989 39.2567C25.9232 40.9382 25.8367 42.6856 25.8418 44.4446C25.843 44.8183 26.1132 45.1302 26.4705 45.1963L26.4684 45.1933ZM27.5532 35.0397C27.9558 35.1141 28.3489 34.8601 28.4416 34.4572C28.8206 32.8029 29.304 31.1887 29.8785 29.6587C30.0271 29.2635 29.8252 28.8216 29.4285 28.673C29.0317 28.5244 28.5886 28.7251 28.4401 29.1203C27.8404 30.7156 27.337 32.3962 26.946 34.1157C26.8514 34.5286 27.1115 34.9372 27.5234 35.0316C27.5335 35.0334 27.5436 35.0353 27.5561 35.0376L27.5532 35.0397ZM31.1604 25.5005C31.475 25.5587 31.806 25.4151 31.9702 25.1187C32.3952 24.3546 32.8545 23.602 33.3369 22.8796C33.7692 22.2309 34.2393 21.5892 34.7337 20.9702C34.9977 20.6404 34.9412 20.158 34.61 19.8945C34.2788 19.6309 33.7949 19.6866 33.5309 20.0164C33.0093 20.6693 32.5142 21.3479 32.0574 22.0309C31.5529 22.7881 31.0716 23.5755 30.627 24.375C30.4208 24.7439 30.5558 25.2097 30.9263 25.4157C31.0017 25.4582 31.0799 25.4856 31.1579 25.5001L31.1604 25.5005ZM82.4776 28.413C82.5556 28.4275 82.6359 28.4294 82.7185 28.4187C83.1398 28.3644 83.4346 27.9807 83.3795 27.5608C83.1539 25.8543 82.6626 24.1349 81.9234 22.4475C81.753 22.0607 81.3017 21.8838 80.9113 22.0528C80.5234 22.2222 80.3465 22.6718 80.5165 23.0611C81.1995 24.6162 81.6511 26.1986 81.8564 27.7613C81.9007 28.0989 82.16 28.3569 82.4771 28.4155L82.4776 28.413ZM37.507 17.5287C37.7334 17.5706 37.976 17.5118 38.1601 17.3462C39.3925 16.2413 40.7265 15.2201 42.131 14.3104C42.4858 14.0804 42.5865 13.6064 42.3553 13.2524C42.1241 12.8985 41.6483 12.7975 41.2935 13.0275C39.8214 13.9791 38.4209 15.0503 37.1317 16.2094C36.8168 16.4909 36.792 16.9764 37.0748 17.2906C37.1912 17.421 37.3455 17.5015 37.5065 17.5312L37.507 17.5287ZM78.4823 19.1036C78.6861 19.1414 78.9053 19.0963 79.0834 18.9633C79.4218 18.7096 79.4898 18.2295 79.2348 17.8918C78.1859 16.4998 76.9738 15.202 75.6342 14.031C75.3163 13.7518 74.8315 13.784 74.5513 14.103C74.2716 14.4194 74.304 14.9052 74.6249 15.1823C75.8866 16.2819 77.0243 17.5036 78.0086 18.8086C78.13 18.9685 78.2991 19.0672 78.4828 19.1011L78.4823 19.1036ZM46.0758 11.9777C46.2242 12.0052 46.3806 11.99 46.5281 11.924C48.0625 11.2406 49.6473 10.6781 51.2423 10.2575C51.6527 10.1493 51.8943 9.72981 51.7852 9.32066C51.6761 8.91152 51.2549 8.67023 50.8445 8.77842C49.1696 9.22314 47.5048 9.80978 45.8992 10.5266C45.5134 10.699 45.3386 11.1516 45.5145 11.5368C45.6215 11.7744 45.8367 11.9335 46.0758 11.9777ZM70.8098 12.3968C71.1218 12.4546 71.4524 12.3135 71.6181 12.0226C71.8268 11.6541 71.6968 11.1892 71.3268 10.9807C69.7693 10.1013 68.1356 9.39457 66.4712 8.8818C66.0628 8.75438 65.6356 8.98134 65.5113 9.3862C65.3869 9.79106 65.6122 10.2191 66.0186 10.3436C67.5771 10.8238 69.1097 11.4859 70.5701 12.3136C70.6455 12.3561 70.7283 12.387 70.8088 12.4019L70.8098 12.3968ZM55.9514 9.37832C56.0194 9.39089 56.0892 9.39343 56.1603 9.38845C57.8298 9.24091 59.508 9.24281 61.1428 9.39485C61.565 9.43405 61.9397 9.12478 61.9785 8.7041C62.0173 8.28341 61.6989 7.90815 61.2843 7.87035C59.555 7.7086 57.7834 7.70499 56.0213 7.86131C55.5978 7.89965 55.2872 8.27006 55.3263 8.69218C55.3577 9.04287 55.6223 9.31483 55.9519 9.37582L55.9514 9.37832Z" fill="black" fillOpacity="0.13"/>
<path d="M81.536 35.9804C81.7902 36.0274 82.0579 35.9447 82.2401 35.7476C82.7802 35.163 83.3823 34.6235 84.0335 34.1423C84.3739 33.8916 84.4444 33.4119 84.1924 33.0723C83.9588 32.7594 83.5345 32.6757 83.204 32.8583C83.2345 32.4827 82.9792 32.1321 82.5986 32.0513C82.1832 31.9615 81.7757 32.2232 81.6861 32.6371C81.5178 33.4202 81.2756 34.1948 80.9666 34.9364C80.8253 35.2784 80.9497 35.6749 81.2644 35.8731C81.3505 35.9279 81.4429 35.9632 81.5385 35.9809L81.536 35.9804Z" fill="black" fillOpacity="0.13"/>
<path d="M1.38669 98.1209C1.40178 98.1237 1.41688 98.1265 1.43198 98.1293C3.10328 98.3373 4.79935 98.5241 6.47443 98.6836C6.89611 98.7253 7.27082 98.416 7.31213 97.9958C7.35344 97.5755 7.04014 97.2012 6.62097 97.16C4.96145 97.0008 3.27796 96.8164 1.62176 96.6111C1.20193 96.5594 0.81901 96.8568 0.765122 97.2746C0.71653 97.678 0.991625 98.0478 1.38669 98.1209ZM11.4413 99.0838C11.4715 99.0894 11.4992 99.0945 11.5303 99.0951C13.2087 99.2085 14.9123 99.2981 16.5965 99.3659C17.0204 99.3821 17.3777 99.0541 17.3934 98.6317C17.4091 98.2093 17.082 97.8532 16.6557 97.8366C14.9865 97.7715 13.2985 97.6822 11.6331 97.5686C11.2091 97.5394 10.8431 97.8581 10.8169 98.2811C10.7912 98.6731 11.0638 99.014 11.4438 99.0843L11.4413 99.0838ZM21.5334 99.478C21.5762 99.4859 21.6195 99.4913 21.6666 99.4897C23.3546 99.5089 25.0603 99.503 26.7395 99.4713C27.1625 99.464 27.5004 99.1142 27.4925 98.6927C27.4847 98.2711 27.1358 97.9343 26.7103 97.9412C25.0471 97.9706 23.3545 97.9764 21.682 97.9574C21.2584 97.9542 20.9122 98.2921 20.9071 98.7139C20.9023 99.0916 21.1745 99.4064 21.5344 99.473L21.5334 99.478ZM31.6325 99.3004C31.6903 99.3111 31.7496 99.3143 31.8098 99.3125C33.4923 99.2348 35.1955 99.1298 36.8713 99.0042C37.2934 98.9733 37.6115 98.6043 37.5775 98.1831C37.5461 97.7624 37.1754 97.4449 36.7528 97.4782C35.0926 97.6041 33.4029 97.7064 31.7334 97.7839C31.3107 97.8043 30.9844 98.1614 31.0023 98.5848C31.0189 98.9457 31.2873 99.2391 31.6295 99.3024L31.6325 99.3004ZM41.7041 98.5394C41.7746 98.5525 41.8494 98.556 41.9236 98.5489C43.6011 98.3718 45.2963 98.1693 46.9595 97.9429C47.3787 97.8856 47.6734 97.5019 47.6159 97.0815C47.5579 96.6637 47.17 96.3689 46.7508 96.4262C45.1011 96.65 43.4219 96.8502 41.7605 97.0251C41.3386 97.0689 41.0346 97.4458 41.0791 97.8663C41.117 98.2104 41.377 98.4789 41.7041 98.5394ZM51.7085 97.1852C51.7941 97.201 51.8849 97.2023 51.9761 97.188C53.6435 96.9105 55.3211 96.6063 56.9663 96.2805C57.3821 96.1992 57.652 95.7954 57.5699 95.3808C57.4878 94.9663 57.0823 94.6968 56.6665 94.7781C55.0378 95.0991 53.3733 95.4031 51.7223 95.676C51.3033 95.7463 51.0222 96.1403 51.0938 96.5554C51.1479 96.8818 51.402 97.1259 51.7115 97.1832L51.7085 97.1852ZM61.611 95.2287C61.7117 95.2473 61.8185 95.2463 61.9245 95.2218C63.5719 94.842 65.2268 94.4351 66.8493 94.0066C67.2597 93.8984 67.5038 93.4794 67.3943 93.0727C67.2852 92.6636 66.8645 92.4198 66.4541 92.528C64.8481 92.9518 63.2091 93.3565 61.5783 93.7316C61.1652 93.8263 60.9094 94.238 61.005 94.6498C61.0759 94.9559 61.3216 95.1751 61.6135 95.2291L61.611 95.2287ZM71.3701 92.6544C71.4859 92.6758 71.6092 92.6701 71.7301 92.6354C73.3473 92.1514 74.9751 91.6383 76.5649 91.1053C76.9668 90.9722 77.1826 90.5375 77.0485 90.1367C76.9145 89.7359 76.4781 89.5204 76.0762 89.6535C74.5008 90.1788 72.8916 90.6902 71.2888 91.1664C70.8837 91.2885 70.6513 91.7149 70.7743 92.1189C70.8595 92.4043 71.0963 92.6011 71.3706 92.6518L71.3701 92.6544ZM80.9406 89.4539C81.0739 89.4786 81.2138 89.4682 81.348 89.4178C81.9908 89.1789 82.6345 88.9349 83.2741 88.685C84.233 88.3127 85.1743 87.9371 86.0709 87.5636C86.4625 87.4026 86.6469 86.9544 86.4849 86.564C86.3229 86.1736 85.8729 85.9892 85.4814 86.1502C84.5962 86.518 83.6659 86.8905 82.7185 87.2571C82.0848 87.5029 81.4496 87.7433 80.8124 87.9806C80.4156 88.1277 80.214 88.5701 80.3621 88.9657C80.4594 89.2275 80.6869 89.4044 80.9435 89.4519L80.9406 89.4539ZM90.2538 85.5758C90.4073 85.6042 90.5692 85.5874 90.7206 85.5143C92.3057 84.7677 93.8332 83.9949 95.2606 83.214C95.6314 83.0103 95.7694 82.5457 95.5646 82.1759C95.3598 81.8061 94.8935 81.668 94.5227 81.8716C93.1215 82.6367 91.6225 83.3966 90.0633 84.1299C89.6811 84.3107 89.5164 84.7651 89.6978 85.1488C89.8087 85.3793 90.0173 85.532 90.2538 85.5758ZM99.0887 80.7249C99.2749 80.7593 99.4736 80.7261 99.6451 80.6152C101.117 79.6636 102.517 78.6649 103.808 77.6538C104.14 77.3911 104.197 76.9116 103.933 76.5802C103.672 76.2491 103.188 76.1908 102.856 76.4534C101.602 77.4376 100.241 78.4072 98.8072 79.3347C98.4523 79.5647 98.3516 80.0388 98.5828 80.3927C98.7025 80.5756 98.8864 80.6926 99.0877 80.7299L99.0887 80.7249ZM106.981 74.4859C107.22 74.5302 107.475 74.4606 107.659 74.2795C108.905 73.0579 110.057 71.7696 111.083 70.4555C111.343 70.1223 111.283 69.6419 110.949 69.3804C110.615 69.1189 110.133 69.1801 109.871 69.5128C108.883 70.7744 107.777 72.0116 106.578 73.1875C106.276 73.4843 106.272 73.9685 106.57 74.27C106.684 74.387 106.827 74.4575 106.976 74.485L106.981 74.4859ZM113.109 66.5387C113.426 66.5973 113.761 66.4492 113.922 66.1523C114.747 64.6374 115.444 63.0497 115.998 61.4305C116.135 61.0305 115.921 60.5968 115.519 60.4603C115.118 60.3237 114.683 60.5363 114.546 60.9363C114.022 62.4756 113.358 63.9838 112.577 65.4211C112.375 65.7935 112.513 66.2573 112.885 66.4582C112.958 66.4977 113.034 66.5247 113.112 66.5391L113.109 66.5387ZM116.329 57.0524C116.329 57.0524 116.347 57.0556 116.355 57.057C116.775 57.1218 117.166 56.8338 117.228 56.4173C117.491 54.6845 117.586 52.9466 117.512 51.2525C117.493 50.8316 117.132 50.5029 116.71 50.5208C116.285 50.5381 115.959 50.8952 115.977 51.3186C116.046 52.9158 115.956 54.5536 115.709 56.1881C115.646 56.5966 115.921 56.9795 116.329 57.0549L116.329 57.0524ZM115.858 47.0647C115.967 47.0847 116.079 47.0822 116.194 47.0516C116.604 46.9434 116.848 46.5269 116.739 46.1178C116.29 44.4243 115.651 42.797 114.837 41.2747C114.638 40.9008 114.172 40.7601 113.798 40.9579C113.423 41.1556 113.282 41.6197 113.481 41.9936C114.239 43.4097 114.835 44.9305 115.254 46.5068C115.331 46.8039 115.574 47.0121 115.858 47.0647ZM111.131 38.2681C111.36 38.3105 111.605 38.2496 111.79 38.0815C112.103 37.7971 112.122 37.3131 111.836 37.0009C110.69 35.7568 109.345 34.6264 107.833 33.6438C107.477 33.4121 107.001 33.5107 106.772 33.865C106.542 34.2193 106.639 34.6937 106.995 34.9228C108.398 35.8359 109.648 36.884 110.706 38.0339C110.822 38.1618 110.972 38.2388 111.131 38.2681ZM87.9177 32.0184C88.0385 32.0408 88.1673 32.0335 88.2917 31.9943C89.7715 31.5212 91.3747 31.2396 93.0536 31.1534C93.4763 31.1331 93.8031 30.7735 93.7797 30.3516C93.7587 29.9303 93.3945 29.6062 92.9743 29.627C91.1615 29.7195 89.4262 30.026 87.822 30.5382C87.418 30.6683 87.1981 31.097 87.3267 31.4994C87.4157 31.7778 87.651 31.9691 87.9177 32.0184ZM102.776 32.7576C103.133 32.8237 103.497 32.6292 103.633 32.2782C103.784 31.8834 103.584 31.442 103.188 31.2909C101.569 30.6725 99.8816 30.2151 98.172 29.9325C97.7529 29.8627 97.3597 30.1453 97.2908 30.5604C97.2222 30.973 97.4991 31.3613 97.9093 31.4372C97.9143 31.4381 97.9193 31.439 97.9244 31.44C99.5324 31.7089 101.121 32.1377 102.646 32.7179C102.689 32.7338 102.736 32.7477 102.782 32.7561L102.776 32.7576Z" fill="black" fillOpacity="0.13"/>
<defs>
<filter id="filter0_d_441_1114" x="138.877" y="91.0416" width="78.5202" height="79.164" filterUnits="userSpaceOnUse" color-interpolation-filters="sRGB">
<feFlood flood-opacity="0" result="BackgroundImageFix"/>
<feColorMatrix in="SourceAlpha" type="matrix" values="0 0 0 0 0 0 0 0 0 0 0 0 0 0 0 0 0 0 127 0" result="hardAlpha"/>
<feOffset dx="3.24482" dy="-3.24482"/>
<feComposite in2="hardAlpha" operator="out"/>
<feColorMatrix type="matrix" values="0 0 0 0 1 0 0 0 0 1 0 0 0 0 1 0 0 0 1 0"/>
<feBlend mode="normal" in2="BackgroundImageFix" result="effect1_dropShadow_441_1114"/>
<feBlend mode="normal" in="SourceGraphic" in2="effect1_dropShadow_441_1114" result="shape"/>
</filter>
</defs>
</svg>
