<svg width="512" height="350" viewBox="0 0 512 350" fill="none" xmlns="http://www.w3.org/2000/svg">
<path fillRule="evenodd" clipRule="evenodd" d="M3.62396e-05 -476L0 350H1L1.00004 -476H3.62396e-05ZM12.0001 -476L12 350H13L13.0001 -476H12.0001ZM24 350L24.0001 -476H25.0001L25 350H24ZM36.0001 -476L36.0001 350H37.0001L37.0001 -476H36.0001ZM48.0001 350L48.0001 -476H49.0001L49.0001 350H48.0001ZM60.0002 -476L60.0001 350H61.0001L61.0002 -476H60.0002ZM72.0002 350L72.0002 -476H73.0002L73.0002 350H72.0002ZM84.0002 -476L84.0002 350H85.0002L85.0002 -476H84.0002ZM96 350L96 -476H97L97 350H96ZM108 -476L108 350H109L109 -476H108ZM120 350L120 -476H121L121 350H120ZM132 -476L132 350H133L133 -476H132ZM144 350L144 -476H145L145 350H144ZM156 -476L156 350H157L157 -476H156ZM168 350L168 -476H169L169 350H168ZM180 -476L180 350H181L181 -476H180ZM192 350L192 -476H193L193 350H192ZM204 -476L204 350H205L205 -476H204ZM216 350L216 -476H217L217 350H216ZM228 -476L228 350H229L229 -476H228ZM240 350L240 -476H241L241 350H240ZM252 -476L252 350H253L253 -476H252ZM264 350L264 -476H265L265 350H264ZM276 -476L276 350H277L277 -476H276ZM288 350L288 -476H289L289 350H288ZM300 -476L300 350H301L301 -476H300ZM312 350L312 -476H313L313 350H312ZM324 -476L324 350H325L325 -476H324ZM336 350L336 -476H337L337 350H336ZM348 -476L348 350H349L349 -476H348ZM360 350L360 -476H361L361 350H360ZM372 -476L372 350H373L373 -476H372ZM384 350L384 -476H385L385 350H384ZM396 -476L396 350H397L397 -476H396ZM408 350L408 -476H409L409 350H408ZM420 -476L420 350H421L421 -476H420ZM432 350L432 -476H433L433 350H432ZM444 -476L444 350H445L445 -476H444ZM456 350L456 -476H457L457 350H456ZM468 -476L468 350H469L469 -476H468ZM480 350L480 -476H481L481 350H480ZM492 -476L492 350H493L493 -476H492ZM504 350L504 -476H505L505 350H504ZM516 -476L516 350H517L517 -476H516ZM528 350L528 -476H529L529 350H528ZM540.004 -476L540.004 350H541.004L541.004 -476H540.004ZM552.004 350L552.004 -476H553.004L553.004 350H552.004ZM564 -476L564 350H565L565 -476H564ZM576.004 350L576.004 -476H577.004L577.004 350H576.004ZM588.004 -476L588.004 350H589.004L589.004 -476H588.004ZM600.004 350L600.004 -476H601.004L601.004 350H600.004ZM612.004 -476L612.004 350H613.004L613.004 -476H612.004ZM624.004 350L624.004 -476H625.004L625.004 350H624.004ZM636.004 -476L636.004 350H637.004L637.004 -476H636.004Z" fill="url(#paint0_diamond_441_914)" fillOpacity="0.34"/>
<defs>
<radialGradient id="paint0_diamond_441_914" cx="0" cy="0" r="1" gradientUnits="userSpaceOnUse" gradientTransform="translate(1006.39 17.1646) rotate(-169.197) scale(1121.26 416.934)">
<stop stopColor="#2100EC"/>
<stop offset="1" stopColor="#2100EC" stopOpacity="0"/>
</radialGradient>
</defs>
</svg>
