<svg width="1121" height="503" viewBox="0 0 1121 503" fill="none" xmlns="http://www.w3.org/2000/svg">
<path opacity="0.09" d="M0 484.134L694.612 503L6.13063 410.22L0 484.134ZM1384.51 413.338L695.62 503L1390 481.98L1384.51 413.338ZM1340.44 245.632L695.471 502.905C695.471 502.905 695.487 502.869 695.487 502.845L1307.16 174.955L1255.84 94.1133L695.487 502.798C695.471 502.774 695.471 502.75 695.471 502.75L1205.97 33.8628L1136.05 -31.7081L695.405 502.679C695.405 502.679 695.405 502.607 695.388 502.607L1072.63 -77.7231L988.502 -123.952L695.339 502.571C695.322 502.548 695.289 502.548 695.273 502.524L915.595 -152.852L822.578 -176.823L695.207 502.524C695.19 502.524 695.19 502.5 695.19 502.5L744.747 -186.786L648.64 -187L695.074 502.5C695.041 502.5 695.025 502.524 695.008 502.524L570.76 -177.395L477.611 -153.84L694.942 502.524C694.926 502.548 694.893 502.548 694.876 502.571L404.588 -125.274L320.263 -79.4014L694.843 502.631C694.826 502.631 694.826 502.679 694.81 502.702L256.644 -33.6958L186.447 31.5656L694.76 502.75C694.76 502.774 694.744 502.774 694.744 502.798L136.262 91.6019L84.5564 172.182L694.727 502.845C694.727 502.869 694.744 502.893 694.744 502.893L50.9784 242.728L21.0358 333.58L694.777 502.976C694.777 502.976 694.793 502.976 694.793 503H695.438C695.454 502.976 695.454 502.976 695.454 502.976L1369.97 336.627L1340.44 245.632Z" fill="url(#paint0_radial_441_797)" fillOpacity="0.42"/>
<defs>
<radialGradient id="paint0_radial_441_797" cx="0" cy="0" r="1" gradientUnits="userSpaceOnUse" gradientTransform="translate(705.072 395.482) rotate(-91.6627) scale(347.128 712.706)">
<stop stopColor="#060606"/>
<stop offset="1" stopColor="#060606" stopOpacity="0"/>
</radialGradient>
</defs>
</svg>
