<svg width="160" height="31" viewBox="0 0 160 31" fill="none" xmlns="http://www.w3.org/2000/svg">
<path d="M3.04199 6.80542L6.08428 9.84771L3.04199 12.89L-0.000293726 9.84771L3.04199 6.80542Z" fill="black"/>
<path d="M32.335 6.80542L35.3772 9.84771L32.335 12.89L29.2927 9.84771L32.335 6.80542Z" fill="black"/>
<path d="M17.6885 9.49463L20.7308 12.5369L17.6885 15.5792L14.6462 12.5369L17.6885 9.49463Z" fill="black"/>
<path d="M17.6885 15.5718L20.7308 18.6141L17.6885 21.6563L14.6462 18.6141L17.6885 15.5718Z" fill="black"/>
<path fillRule="evenodd" clipRule="evenodd" d="M29.6274 15.6453L26.5851 12.603L23.6101 15.578L23.6038 15.5717L20.5615 18.614L23.6038 21.6563L26.5618 18.6983L29.5197 21.6563L32.562 18.614L29.6104 15.6623L29.6274 15.6453Z" fill="black"/>
<path fillRule="evenodd" clipRule="evenodd" d="M20.7544 24.6375L17.7121 21.5952L14.7371 24.5702L14.7308 24.5639L11.6885 27.6062L14.7308 30.6485L17.6887 27.6905L20.6467 30.6485L23.689 27.6062L20.7373 24.6545L20.7544 24.6375Z" fill="black"/>
<path fillRule="evenodd" clipRule="evenodd" d="M20.6466 6.44722L23.6046 9.40516L26.6468 6.36288L23.6952 3.41123L23.7122 3.3942L20.6699 0.351913L17.7121 3.3098L14.7541 0.351807L11.779 3.32685L11.7728 3.32059L8.73047 6.36288L11.7728 9.40516L14.7307 6.44722L17.6886 9.40516L17.6887 9.40515L17.6887 9.40516L20.6466 6.44722Z" fill="black"/>
<path fillRule="evenodd" clipRule="evenodd" d="M11.8803 15.6453L8.83805 12.603L5.86305 15.578L5.85674 15.5717L2.81445 18.614L5.85674 21.6563L8.8147 18.6983L11.7727 21.6563L14.8149 18.614L11.8633 15.6623L11.8803 15.6453Z" fill="black"/>
<path d="M141.117 16.3141H143.872C147.983 16.3141 150.049 16.7315 150.049 19.8826C150.049 22.5955 147.983 24.098 143.872 24.098H141.305C137.194 24.098 135.128 22.9711 135.128 19.82H139.114C139.114 20.4252 139.469 20.926 140.846 20.926H144.101C145.52 20.926 146.084 20.6756 146.084 20.0913C146.084 19.5487 145.52 19.3609 144.101 19.3609H141.514C137.403 19.3609 135.337 18.714 135.337 15.5629C135.337 12.8291 137.403 11.5562 141.514 11.5562H143.663C147.774 11.5562 149.84 12.4744 149.84 15.8342H145.854C145.854 15.229 145.499 14.7281 144.122 14.7281H141.117C139.698 14.7281 139.343 15.0829 139.343 15.5629C139.343 16.0428 139.698 16.3141 141.117 16.3141Z" fill="black"/>
<path d="M129.589 13.2465V8.13379H133.658V23.785H129.589V22.4286C128.567 23.6598 127.001 24.1189 125.082 24.1189H124.706C120.845 24.1189 118.946 22.679 118.946 17.8376C118.946 12.9961 120.845 11.5562 124.706 11.5562H125.082C127.001 11.5562 128.567 12.0153 129.589 13.2465ZM125.562 20.6548H126.939C129.172 20.6548 129.589 19.7783 129.589 17.8376C129.589 15.8968 129.172 15.0203 126.939 15.0203H125.562C123.329 15.0203 122.911 15.8968 122.911 17.8376C122.911 19.7783 123.329 20.6548 125.562 20.6548Z" fill="black"/>
<path d="M108.846 11.5562H111.204C115.482 11.5562 117.485 12.9752 117.485 17.8166V23.785H113.416V22.4703C112.727 23.4928 111.517 24.098 109.326 24.098H108.637C104.526 24.098 102.46 22.9711 102.46 19.8826C102.46 17.2115 104.526 16.7106 108.22 16.7106H113.353C113.145 15.3542 112.518 14.8325 110.766 14.8325H108.804C106.988 14.8325 106.654 15.542 106.654 15.9802H102.669C102.669 12.8709 104.714 11.5562 108.846 11.5562ZM108.595 21.0512H110.766C112.685 21.0512 113.27 20.3835 113.395 18.8183H108.595C106.926 18.8183 106.446 19.1105 106.446 19.8826C106.446 20.7591 106.926 21.0512 108.595 21.0512Z" fill="black"/>
<path d="M100.991 23.785H96.9219V8.13379H100.991V23.785Z" fill="black"/>
<path d="M89.032 11.5769H89.4076C93.2682 11.5769 95.2507 13.0168 95.2507 17.8583V23.8057H91.1814V17.8583C91.1814 15.9175 90.7849 15.041 88.552 15.041H87.1747C84.9418 15.041 84.5244 15.9175 84.5244 17.8583V23.7849H80.4551V11.8691H84.107V13.8724C85.067 12.1612 86.8199 11.5769 89.032 11.5769Z" fill="black"/>
<path d="M77.0456 10.8048H76.4196C74.9379 10.8048 74.291 10.2831 74.291 8.82235C74.291 7.4033 74.9379 6.88159 76.4196 6.88159H77.0456C78.5273 6.88159 79.1951 7.4033 79.1951 8.82235C79.1951 10.2831 78.5273 10.8048 77.0456 10.8048ZM78.7777 23.7849H74.7084V11.8691H78.7777V23.7849Z" fill="black"/>
<path d="M66.3667 19.4025L69.2882 9.177H73.8793L69.4969 23.7848H63.8625L61.1496 14.2897L58.4367 23.7848H52.8023L48.4199 9.177H53.011L55.9325 19.4025L58.8541 9.177H63.4451L66.3667 19.4025Z" fill="black"/>
<path d="M160 7.15186V10.8038H159.269L159.301 7.564L157.96 10.8038H156.953L155.612 7.55357L155.643 10.8038H154.913V7.15186H156.129L157.475 10.4125L158.826 7.15186H160Z" fill="black"/>
<path d="M151.296 7.15186H154.687V7.75182H153.367V10.8038H152.616V7.75182H151.296V7.15186Z" fill="black"/>
</svg>
