<svg width="76" height="77" viewBox="0 0 76 77" fill="none" xmlns="http://www.w3.org/2000/svg">
<circle cx="38" cy="38.5" r="38" fill="#FF6B00" fill-opacity="0.15"/>
<path fill-rule="evenodd" clip-rule="evenodd" d="M31.654 51.814H26.692C25.584 51.814 24.686 50.916 24.686 49.808V44.844C24.686 44.312 24.474 43.802 24.098 43.426L20.588 39.916C19.804 39.132 19.804 37.862 20.588 37.08L24.134 33.534C24.488 33.18 24.686 32.702 24.686 32.202V27.192C24.686 26.084 25.584 25.186 26.692 25.186H31.656C32.188 25.186 32.698 24.974 33.074 24.598L36.584 21.088C37.368 20.304 38.638 20.304 39.42 21.088L42.93 24.598C43.306 24.974 43.816 25.186 44.348 25.186H49.312C50.42 25.186 51.318 26.084 51.318 27.192V32.156C51.318 32.688 51.53 33.198 51.906 33.574L55.416 37.084C56.2 37.868 56.2 39.138 55.416 39.92L51.906 43.43C51.53 43.806 51.318 44.316 51.318 44.848V49.812C51.318 50.92 50.42 51.818 49.312 51.818H44.348C43.816 51.818 43.306 52.03 42.93 52.406L39.42 55.916C38.636 56.7 37.366 56.7 36.584 55.916L33.074 52.406C32.696 52.024 32.186 51.814 31.654 51.814Z" fill="#FF6B00" stroke="#FF6B00" stroke-width="1.5" stroke-linecap="round" stroke-linejoin="round"/>
<path d="M44 35.5L36.5 43L32 38.5" stroke="white" stroke-width="1.5" stroke-linecap="round" stroke-linejoin="round"/>
</svg>
